<svg width="392" height="520" viewBox="0 0 392 520" fill="none" xmlns="http://www.w3.org/2000/svg">
<path d="M129.501 32V10.4H134.008V28.0533H145.128V32H129.501ZM154.59 32.32C152.865 32.32 151.363 31.9822 150.083 31.3067C148.803 30.6133 147.816 29.6444 147.123 28.4C146.43 27.1378 146.083 25.6533 146.083 23.9467C146.083 22.24 146.421 20.7733 147.096 19.5467C147.772 18.3022 148.732 17.3511 149.976 16.6933C151.239 16.0178 152.723 15.68 154.43 15.68C156.101 15.68 157.532 16 158.723 16.64C159.932 17.28 160.856 18.1956 161.496 19.3867C162.136 20.5778 162.456 22 162.456 23.6533V25.1467H150.323C150.501 26.3378 150.954 27.2444 151.683 27.8667C152.412 28.4889 153.372 28.8 154.563 28.8C155.505 28.8 156.252 28.64 156.803 28.32C157.354 28 157.745 27.5111 157.976 26.8533H162.403C162.048 28.56 161.185 29.9022 159.816 30.88C158.448 31.84 156.705 32.32 154.59 32.32ZM150.43 22.2133H158.216C158.074 21.2 157.683 20.4444 157.043 19.9467C156.403 19.4311 155.541 19.1733 154.456 19.1733C153.372 19.1733 152.483 19.4311 151.79 19.9467C151.114 20.4622 150.661 21.2178 150.43 22.2133ZM151.736 14V13.8933L154.616 9.09333H159.363V9.2L155.176 14H151.736ZM166.235 38.4V20.3733H164.048V16H168.528V18.6133H169.648C170.217 17.6889 170.973 16.9689 171.915 16.4533C172.875 15.9378 174.03 15.68 175.381 15.68C177.035 15.68 178.43 16.0267 179.568 16.72C180.706 17.4133 181.568 18.3822 182.155 19.6267C182.741 20.8711 183.035 22.3289 183.035 24C183.035 25.6711 182.75 27.1378 182.181 28.4C181.613 29.6444 180.786 30.6133 179.701 31.3067C178.617 31.9822 177.301 32.32 175.755 32.32C174.581 32.32 173.577 32.1067 172.741 31.68C171.906 31.2356 171.248 30.6133 170.768 29.8133H170.661V38.4H166.235ZM174.555 28.48C175.906 28.48 176.919 28.08 177.595 27.28C178.27 26.48 178.608 25.3867 178.608 24C178.608 22.6133 178.27 21.52 177.595 20.72C176.919 19.92 175.906 19.52 174.555 19.52C173.364 19.52 172.413 19.8578 171.701 20.5333C171.008 21.1911 170.661 22.1067 170.661 23.28V24.72C170.661 25.8933 171.008 26.8178 171.701 27.4933C172.413 28.1511 173.364 28.48 174.555 28.48ZM183.202 38.4V34.9333H185.842V16H190.242V34.8533C190.242 36.0444 189.922 36.9333 189.282 37.52C188.66 38.1067 187.762 38.4 186.589 38.4H183.202ZM188.055 14.4267C187.38 14.4267 186.802 14.1956 186.322 13.7333C185.86 13.2533 185.629 12.6756 185.629 12C185.629 11.3244 185.86 10.7556 186.322 10.2933C186.802 9.81333 187.38 9.57333 188.055 9.57333C188.731 9.57333 189.3 9.81333 189.762 10.2933C190.242 10.7556 190.482 11.3244 190.482 12C190.482 12.6756 190.242 13.2533 189.762 13.7333C189.3 14.1956 188.731 14.4267 188.055 14.4267ZM211.6 32.32C210.249 32.32 209.094 32.0622 208.134 31.5467C207.191 31.0311 206.436 30.3111 205.867 29.3867H204.747V32H200.267V27.6267H202.454V9.6H206.88V18.1867H206.987C207.467 17.3867 208.125 16.7733 208.96 16.3467C209.796 15.9022 210.8 15.68 211.974 15.68C213.52 15.68 214.836 16.0267 215.92 16.72C217.005 17.3956 217.831 18.3644 218.4 19.6267C218.969 20.8711 219.254 22.3289 219.254 24C219.254 25.6533 218.96 27.1111 218.374 28.3733C217.787 29.6178 216.925 30.5867 215.787 31.28C214.649 31.9733 213.254 32.32 211.6 32.32ZM210.774 28.48C212.125 28.48 213.138 28.08 213.814 27.28C214.489 26.48 214.827 25.3867 214.827 24C214.827 22.6133 214.489 21.52 213.814 20.72C213.138 19.92 212.125 19.52 210.774 19.52C209.582 19.52 208.631 19.8578 207.92 20.5333C207.227 21.1911 206.88 22.1067 206.88 23.28V24.72C206.88 25.8933 207.227 26.8178 207.92 27.4933C208.631 28.1511 209.582 28.48 210.774 28.48ZM229.527 32.32C227.803 32.32 226.301 31.9822 225.021 31.3067C223.741 30.6133 222.754 29.6444 222.061 28.4C221.367 27.1378 221.021 25.6533 221.021 23.9467C221.021 22.24 221.358 20.7733 222.034 19.5467C222.71 18.3022 223.67 17.3511 224.914 16.6933C226.176 16.0178 227.661 15.68 229.367 15.68C231.038 15.68 232.47 16 233.661 16.64C234.87 17.28 235.794 18.1956 236.434 19.3867C237.074 20.5778 237.394 22 237.394 23.6533V25.1467H225.261C225.438 26.3378 225.892 27.2444 226.621 27.8667C227.35 28.4889 228.31 28.8 229.501 28.8C230.443 28.8 231.19 28.64 231.741 28.32C232.292 28 232.683 27.5111 232.914 26.8533H237.341C236.985 28.56 236.123 29.9022 234.754 30.88C233.385 31.84 231.643 32.32 229.527 32.32ZM225.367 22.2133H233.154C233.012 21.2 232.621 20.4444 231.981 19.9467C231.341 19.4311 230.478 19.1733 229.394 19.1733C228.31 19.1733 227.421 19.4311 226.727 19.9467C226.052 20.4622 225.598 21.2178 225.367 22.2133ZM252.761 32.2933C250.877 32.2933 249.401 31.84 248.335 30.9333C247.268 30.0089 246.735 28.8 246.735 27.3067C246.735 25.7244 247.286 24.5067 248.388 23.6533C249.49 22.8 251.073 22.3733 253.135 22.3733H257.721V21.76C257.721 20.0356 256.69 19.1733 254.628 19.1733C252.833 19.1733 251.748 19.7956 251.375 21.04H246.975C247.33 19.28 248.157 17.9467 249.455 17.04C250.753 16.1333 252.477 15.68 254.628 15.68C257.01 15.68 258.824 16.2133 260.068 17.28C261.33 18.3467 261.961 19.9022 261.961 21.9467V27.6267H264.041V32H259.561V29.3867H258.441C257.89 30.3111 257.153 31.0311 256.228 31.5467C255.304 32.0444 254.148 32.2933 252.761 32.2933ZM253.428 28.9333C254.264 28.9333 255.001 28.7822 255.641 28.48C256.281 28.1778 256.788 27.7778 257.161 27.28C257.535 26.7644 257.721 26.1867 257.721 25.5467V25.3067H253.348C251.748 25.3067 250.948 25.9022 250.948 27.0933C250.948 27.68 251.17 28.1333 251.615 28.4533C252.059 28.7733 252.664 28.9333 253.428 28.9333ZM132.029 112L125.176 96H129.842L134.322 106.88H134.429L138.776 96H143.362L136.509 112H132.029ZM145.356 112V96H149.782V112H145.356ZM147.569 94.4267C146.893 94.4267 146.316 94.1956 145.836 93.7333C145.373 93.2533 145.142 92.6756 145.142 92C145.142 91.3244 145.373 90.7556 145.836 90.2933C146.316 89.8133 146.893 89.5733 147.569 89.5733C148.245 89.5733 148.813 89.8133 149.276 90.2933C149.756 90.7556 149.996 91.3244 149.996 92C149.996 92.6756 149.756 93.2533 149.276 93.7333C148.813 94.1956 148.245 94.4267 147.569 94.4267ZM153.449 112V89.6H157.876V112H153.449ZM166.636 112.293C164.752 112.293 163.276 111.84 162.21 110.933C161.143 110.009 160.61 108.8 160.61 107.307C160.61 105.724 161.161 104.507 162.263 103.653C163.365 102.8 164.948 102.373 167.01 102.373H171.596V101.76C171.596 100.036 170.565 99.1733 168.503 99.1733C166.708 99.1733 165.623 99.7956 165.25 101.04H160.85C161.205 99.28 162.032 97.9467 163.33 97.04C164.628 96.1333 166.352 95.68 168.503 95.68C170.885 95.68 172.699 96.2133 173.943 97.28C175.205 98.3467 175.836 99.9022 175.836 101.947V107.627H177.916V112H173.436V109.387H172.316C171.765 110.311 171.028 111.031 170.103 111.547C169.179 112.044 168.023 112.293 166.636 112.293ZM167.303 108.933C168.139 108.933 168.876 108.782 169.516 108.48C170.156 108.178 170.663 107.778 171.036 107.28C171.41 106.764 171.596 106.187 171.596 105.547V105.307H167.223C165.623 105.307 164.823 105.902 164.823 107.093C164.823 107.68 165.045 108.133 165.49 108.453C165.934 108.773 166.539 108.933 167.303 108.933ZM166.023 94V93.8933L168.903 89.0933H173.65V89.2L169.463 94H166.023ZM188.081 118.72C185.681 118.72 183.725 118.231 182.214 117.253C180.721 116.293 179.832 114.951 179.547 113.227H184.241C184.667 114.542 185.903 115.2 187.947 115.2C189.334 115.2 190.392 114.88 191.121 114.24C191.867 113.618 192.241 112.711 192.241 111.52V109.387H192.107C191.627 110.24 190.961 110.889 190.107 111.333C189.272 111.778 188.267 112 187.094 112C185.583 112 184.267 111.671 183.147 111.013C182.045 110.338 181.183 109.387 180.561 108.16C179.956 106.933 179.654 105.493 179.654 103.84C179.654 101.351 180.338 99.3689 181.707 97.8933C183.094 96.4178 184.987 95.68 187.387 95.68C188.738 95.68 189.885 95.9378 190.827 96.4533C191.787 96.9689 192.552 97.6889 193.121 98.6133H194.241V96H198.721V100.373H196.534V111.573C196.534 113.849 195.805 115.609 194.347 116.853C192.89 118.098 190.801 118.72 188.081 118.72ZM188.187 108.16C189.414 108.16 190.374 107.822 191.067 107.147C191.761 106.471 192.107 105.547 192.107 104.373V103.253C192.107 102.098 191.752 101.191 191.041 100.533C190.347 99.8578 189.396 99.52 188.187 99.52C186.89 99.52 185.876 99.9022 185.147 100.667C184.436 101.431 184.081 102.498 184.081 103.867C184.081 105.236 184.436 106.293 185.147 107.04C185.876 107.787 186.89 108.16 188.187 108.16ZM206.386 112.293C204.502 112.293 203.026 111.84 201.96 110.933C200.893 110.009 200.36 108.8 200.36 107.307C200.36 105.724 200.911 104.507 202.013 103.653C203.115 102.8 204.698 102.373 206.76 102.373H211.346V101.76C211.346 100.036 210.315 99.1733 208.253 99.1733C206.458 99.1733 205.373 99.7956 205 101.04H200.6C200.955 99.28 201.782 97.9467 203.08 97.04C204.378 96.1333 206.102 95.68 208.253 95.68C210.635 95.68 212.449 96.2133 213.693 97.28C214.955 98.3467 215.586 99.9022 215.586 101.947V107.627H217.666V112H213.186V109.387H212.066C211.515 110.311 210.778 111.031 209.853 111.547C208.929 112.044 207.773 112.293 206.386 112.293ZM207.053 108.933C207.889 108.933 208.626 108.782 209.266 108.48C209.906 108.178 210.413 107.778 210.786 107.28C211.16 106.764 211.346 106.187 211.346 105.547V105.307H206.973C205.373 105.307 204.573 105.902 204.573 107.093C204.573 107.68 204.795 108.133 205.24 108.453C205.684 108.773 206.289 108.933 207.053 108.933ZM205.773 94V93.8933L208.653 89.0933H213.4V89.2L209.213 94H205.773ZM230.663 112.32C229.312 112.32 228.156 112.062 227.196 111.547C226.254 111.031 225.498 110.311 224.929 109.387H223.809V112H219.329V107.627H221.516V89.6H225.943V98.1867H226.049C226.529 97.3867 227.187 96.7733 228.023 96.3467C228.858 95.9022 229.863 95.68 231.036 95.68C232.583 95.68 233.898 96.0267 234.983 96.72C236.067 97.3956 236.894 98.3644 237.463 99.6267C238.032 100.871 238.316 102.329 238.316 104C238.316 105.653 238.023 107.111 237.436 108.373C236.849 109.618 235.987 110.587 234.849 111.28C233.712 111.973 232.316 112.32 230.663 112.32ZM229.836 108.48C231.187 108.48 232.2 108.08 232.876 107.28C233.552 106.48 233.889 105.387 233.889 104C233.889 102.613 233.552 101.52 232.876 100.72C232.2 99.92 231.187 99.52 229.836 99.52C228.645 99.52 227.694 99.8578 226.983 100.533C226.289 101.191 225.943 102.107 225.943 103.28V104.72C225.943 105.893 226.289 106.818 226.983 107.493C227.694 108.151 228.645 108.48 229.836 108.48ZM246.136 112.293C244.252 112.293 242.776 111.84 241.71 110.933C240.643 110.009 240.11 108.8 240.11 107.307C240.11 105.724 240.661 104.507 241.763 103.653C242.865 102.8 244.448 102.373 246.51 102.373H251.096V101.76C251.096 100.036 250.065 99.1733 248.003 99.1733C246.208 99.1733 245.123 99.7956 244.75 101.04H240.35C240.705 99.28 241.532 97.9467 242.83 97.04C244.128 96.1333 245.852 95.68 248.003 95.68C250.385 95.68 252.199 96.2133 253.443 97.28C254.705 98.3467 255.336 99.9022 255.336 101.947V107.627H257.416V112H252.936V109.387H251.816C251.265 110.311 250.528 111.031 249.603 111.547C248.679 112.044 247.523 112.293 246.136 112.293ZM246.803 108.933C247.639 108.933 248.376 108.782 249.016 108.48C249.656 108.178 250.163 107.778 250.536 107.28C250.91 106.764 251.096 106.187 251.096 105.547V105.307H246.723C245.123 105.307 244.323 105.902 244.323 107.093C244.323 107.68 244.545 108.133 244.99 108.453C245.434 108.773 246.039 108.933 246.803 108.933ZM260.781 105.173L260.327 97.5733V90.4H264.807V97.6L264.354 105.173H260.781ZM262.567 112.32C261.856 112.32 261.252 112.08 260.754 111.6C260.274 111.102 260.034 110.498 260.034 109.787C260.034 109.058 260.274 108.453 260.754 107.973C261.252 107.476 261.856 107.227 262.567 107.227C263.278 107.227 263.874 107.476 264.354 107.973C264.852 108.453 265.101 109.058 265.101 109.787C265.101 110.498 264.852 111.102 264.354 111.6C263.874 112.08 263.278 112.32 262.567 112.32Z" fill="#EAF4EC"/>
<path d="M83.4385 72V50.4H87.9452V58.8267H98.5585V50.4H103.065V72H98.5585V62.7733H87.9452V72H83.4385ZM107.621 78.4V74.8533H111.141L112.395 71.8667L105.488 56H110.181L114.661 66.7733H114.768L119.141 56H123.675L116.821 72L115.515 75.0933C115.07 76.1422 114.555 76.9511 113.968 77.52C113.381 78.1067 112.484 78.4 111.275 78.4H107.621ZM126.735 78.4V60.3733H124.548V56H129.028V58.6133H130.148C130.717 57.6889 131.473 56.9689 132.415 56.4533C133.375 55.9378 134.53 55.68 135.881 55.68C137.535 55.68 138.93 56.0267 140.068 56.72C141.206 57.4133 142.068 58.3822 142.655 59.6267C143.241 60.8711 143.535 62.3289 143.535 64C143.535 65.6711 143.25 67.1378 142.681 68.4C142.113 69.6444 141.286 70.6133 140.201 71.3067C139.117 71.9822 137.801 72.32 136.255 72.32C135.081 72.32 134.077 72.1067 133.241 71.68C132.406 71.2356 131.748 70.6133 131.268 69.8133H131.161V78.4H126.735ZM135.055 68.48C136.406 68.48 137.419 68.08 138.095 67.28C138.77 66.48 139.108 65.3867 139.108 64C139.108 62.6133 138.77 61.52 138.095 60.72C137.419 59.92 136.406 59.52 135.055 59.52C133.864 59.52 132.913 59.8578 132.201 60.5333C131.508 61.1911 131.161 62.1067 131.161 63.28V64.72C131.161 65.8933 131.508 66.8178 132.201 67.4933C132.913 68.1511 133.864 68.48 135.055 68.48ZM153.809 72.32C152.084 72.32 150.582 71.9822 149.302 71.3067C148.022 70.6133 147.035 69.6444 146.342 68.4C145.649 67.1378 145.302 65.6533 145.302 63.9467C145.302 62.24 145.64 60.7733 146.315 59.5467C146.991 58.3022 147.951 57.3511 149.195 56.6933C150.457 56.0178 151.942 55.68 153.649 55.68C155.32 55.68 156.751 56 157.942 56.64C159.151 57.28 160.075 58.1956 160.715 59.3867C161.355 60.5778 161.675 62 161.675 63.6533V65.1467H149.542C149.72 66.3378 150.173 67.2444 150.902 67.8667C151.631 68.4889 152.591 68.8 153.782 68.8C154.724 68.8 155.471 68.64 156.022 68.32C156.573 68 156.964 67.5111 157.195 66.8533H161.622C161.266 68.56 160.404 69.9022 159.035 70.88C157.666 71.84 155.924 72.32 153.809 72.32ZM149.649 62.2133H157.435C157.293 61.2 156.902 60.4444 156.262 59.9467C155.622 59.4311 154.76 59.1733 153.675 59.1733C152.591 59.1733 151.702 59.4311 151.009 59.9467C150.333 60.4622 149.88 61.2178 149.649 62.2133ZM165.694 72V60.3733H163.507V56H167.987V59.1467H169.107C169.534 58.0267 170.209 57.1911 171.134 56.64C172.058 56.0889 173.098 55.8133 174.254 55.8133H175.614V59.6533H174.067C172.68 59.6533 171.658 60.0444 171 60.8267C170.36 61.6089 170.04 62.64 170.04 63.92V72H165.694ZM177.386 65.8667V62.1333H185.599V65.8667H177.386ZM189.001 72V50.4H200.174C202.485 50.4 204.29 50.9244 205.588 51.9733C206.903 53.0044 207.561 54.4356 207.561 56.2667C207.561 57.4222 207.285 58.4089 206.734 59.2267C206.201 60.0444 205.445 60.6222 204.468 60.96V61.0933C205.445 61.0933 206.201 61.36 206.734 61.8933C207.285 62.4089 207.561 63.1911 207.561 64.24V72H203.028V63.7867H193.508V72H189.001ZM193.508 59.8667H199.881C200.912 59.8667 201.703 59.6267 202.254 59.1467C202.823 58.6667 203.108 57.9822 203.108 57.0933C203.108 56.2044 202.823 55.52 202.254 55.04C201.703 54.56 200.912 54.32 199.881 54.32H193.508V59.8667ZM218.902 72.32C217.178 72.32 215.676 71.9822 214.396 71.3067C213.116 70.6133 212.129 69.6444 211.436 68.4C210.742 67.1378 210.396 65.6533 210.396 63.9467C210.396 62.24 210.733 60.7733 211.409 59.5467C212.085 58.3022 213.045 57.3511 214.289 56.6933C215.551 56.0178 217.036 55.68 218.742 55.68C220.413 55.68 221.845 56 223.036 56.64C224.245 57.28 225.169 58.1956 225.809 59.3867C226.449 60.5778 226.769 62 226.769 63.6533V65.1467H214.636C214.813 66.3378 215.267 67.2444 215.996 67.8667C216.725 68.4889 217.685 68.8 218.876 68.8C219.818 68.8 220.565 68.64 221.116 68.32C221.667 68 222.058 67.5111 222.289 66.8533H226.716C226.36 68.56 225.498 69.9022 224.129 70.88C222.76 71.84 221.018 72.32 218.902 72.32ZM214.742 62.2133H222.529C222.387 61.2 221.996 60.4444 221.356 59.9467C220.716 59.4311 219.853 59.1733 218.769 59.1733C217.685 59.1733 216.796 59.4311 216.102 59.9467C215.427 60.4622 214.973 61.2178 214.742 62.2133ZM234.574 72.2933C232.69 72.2933 231.214 71.84 230.147 70.9333C229.081 70.0089 228.547 68.8 228.547 67.3067C228.547 65.7244 229.098 64.5067 230.201 63.6533C231.303 62.8 232.885 62.3733 234.947 62.3733H239.534V61.76C239.534 60.0356 238.503 59.1733 236.441 59.1733C234.645 59.1733 233.561 59.7956 233.187 61.04H228.787C229.143 59.28 229.97 57.9467 231.267 57.04C232.565 56.1333 234.29 55.68 236.441 55.68C238.823 55.68 240.636 56.2133 241.881 57.28C243.143 58.3467 243.774 59.9022 243.774 61.9467V67.6267H245.854V72H241.374V69.3867H240.254C239.703 70.3111 238.965 71.0311 238.041 71.5467C237.116 72.0444 235.961 72.2933 234.574 72.2933ZM235.241 68.9333C236.076 68.9333 236.814 68.7822 237.454 68.48C238.094 68.1778 238.601 67.7778 238.974 67.28C239.347 66.7644 239.534 66.1867 239.534 65.5467V65.3067H235.161C233.561 65.3067 232.761 65.9022 232.761 67.0933C232.761 67.68 232.983 68.1333 233.427 68.4533C233.872 68.7733 234.476 68.9333 235.241 68.9333ZM248.637 72V49.6H253.064V72H248.637ZM256.731 72V56H261.157V72H256.731ZM258.944 54.4267C258.268 54.4267 257.691 54.1956 257.211 53.7333C256.748 53.2533 256.517 52.6756 256.517 52C256.517 51.3244 256.748 50.7556 257.211 50.2933C257.691 49.8133 258.268 49.5733 258.944 49.5733C259.62 49.5733 260.188 49.8133 260.651 50.2933C261.131 50.7556 261.371 51.3244 261.371 52C261.371 52.6756 261.131 53.2533 260.651 53.7333C260.188 54.1956 259.62 54.4267 258.944 54.4267ZM269.811 72C268.673 72 267.784 71.7156 267.144 71.1467C266.522 70.56 266.211 69.6711 266.211 68.48V59.4667H263.464V56H266.264V51.2H270.584V56H274.291V59.4667H270.638V68.5333H274.664V72H269.811ZM282.23 72.2933C280.346 72.2933 278.87 71.84 277.804 70.9333C276.737 70.0089 276.204 68.8 276.204 67.3067C276.204 65.7244 276.755 64.5067 277.857 63.6533C278.959 62.8 280.541 62.3733 282.604 62.3733H287.19V61.76C287.19 60.0356 286.159 59.1733 284.097 59.1733C282.301 59.1733 281.217 59.7956 280.844 61.04H276.444C276.799 59.28 277.626 57.9467 278.924 57.04C280.221 56.1333 281.946 55.68 284.097 55.68C286.479 55.68 288.292 56.2133 289.537 57.28C290.799 58.3467 291.43 59.9022 291.43 61.9467V67.6267H293.51V72H289.03V69.3867H287.91C287.359 70.3111 286.621 71.0311 285.697 71.5467C284.772 72.0444 283.617 72.2933 282.23 72.2933ZM282.897 68.9333C283.732 68.9333 284.47 68.7822 285.11 68.48C285.75 68.1778 286.257 67.7778 286.63 67.28C287.004 66.7644 287.19 66.1867 287.19 65.5467V65.3067H282.817C281.217 65.3067 280.417 65.9022 280.417 67.0933C280.417 67.68 280.639 68.1333 281.084 68.4533C281.528 68.7733 282.132 68.9333 282.897 68.9333ZM281.617 54V53.8933L284.497 49.0933H289.244V49.2L285.057 54H281.617ZM303.008 72.32C300.661 72.32 298.803 71.8311 297.434 70.8533C296.083 69.8578 295.354 68.4711 295.248 66.6933H299.514C299.657 67.4578 300.021 68.0267 300.608 68.4C301.212 68.7733 302.074 68.96 303.194 68.96C305.025 68.96 305.941 68.4533 305.941 67.44C305.941 67.0311 305.799 66.7111 305.514 66.48C305.248 66.2311 304.794 66.0444 304.154 65.92L300.581 65.2267C297.381 64.6044 295.781 63.1022 295.781 60.72C295.781 59.1911 296.394 57.9733 297.621 57.0667C298.848 56.1422 300.545 55.68 302.714 55.68C304.865 55.68 306.572 56.1511 307.834 57.0933C309.097 58.0356 309.79 59.3511 309.914 61.04H305.648C305.452 60.2933 305.105 59.7511 304.608 59.4133C304.11 59.0756 303.39 58.9067 302.448 58.9067C301.63 58.9067 301.008 59.0311 300.581 59.28C300.154 59.5111 299.941 59.8667 299.941 60.3467C299.941 60.6844 300.074 60.9689 300.341 61.2C300.608 61.4311 301.017 61.6 301.568 61.7067L305.221 62.4C306.892 62.7378 308.119 63.28 308.901 64.0267C309.683 64.7733 310.074 65.7867 310.074 67.0667C310.074 68.72 309.461 70.0089 308.234 70.9333C307.025 71.8578 305.283 72.32 303.008 72.32Z" fill="#67FFF2"/>
<path d="M77.1503 448L81.7236 437.2H84.0436L88.5636 448H86.2436L85.137 445.36H80.5236L79.3903 448H77.1503ZM81.2303 443.467H84.5236L82.9103 439.573H82.8436L81.2303 443.467ZM96.8164 448.16C95.643 448.16 94.7141 447.916 94.0297 447.427C93.3541 446.929 92.9897 446.236 92.9364 445.347H95.0697C95.1408 445.729 95.323 446.013 95.6164 446.2C95.9186 446.387 96.3497 446.48 96.9097 446.48C97.8252 446.48 98.283 446.227 98.283 445.72C98.283 445.516 98.2119 445.356 98.0697 445.24C97.9364 445.116 97.7097 445.022 97.3897 444.96L95.603 444.613C94.003 444.302 93.203 443.551 93.203 442.36C93.203 441.596 93.5097 440.987 94.123 440.533C94.7364 440.071 95.5852 439.84 96.6697 439.84C97.7452 439.84 98.5986 440.076 99.2297 440.547C99.8608 441.018 100.207 441.676 100.27 442.52H98.1364C98.0386 442.147 97.8652 441.876 97.6164 441.707C97.3675 441.538 97.0075 441.453 96.5364 441.453C96.1275 441.453 95.8164 441.516 95.603 441.64C95.3897 441.756 95.283 441.933 95.283 442.173C95.283 442.342 95.3497 442.484 95.483 442.6C95.6164 442.716 95.8208 442.8 96.0964 442.853L97.923 443.2C98.7586 443.369 99.3719 443.64 99.763 444.013C100.154 444.387 100.35 444.893 100.35 445.533C100.35 446.36 100.043 447.004 99.4297 447.467C98.8252 447.929 97.9541 448.16 96.8164 448.16ZM101.127 448V446.667L105.287 441.76H101.367V440H108.087V441.333L103.927 446.24H108.167V448H101.127ZM112.037 448.147C111.095 448.147 110.357 447.92 109.824 447.467C109.29 447.004 109.024 446.4 109.024 445.653C109.024 444.862 109.299 444.253 109.85 443.827C110.401 443.4 111.193 443.187 112.224 443.187H114.517V442.88C114.517 442.018 114.001 441.587 112.97 441.587C112.073 441.587 111.53 441.898 111.344 442.52H109.144C109.321 441.64 109.735 440.973 110.384 440.52C111.033 440.067 111.895 439.84 112.97 439.84C114.161 439.84 115.068 440.107 115.69 440.64C116.321 441.173 116.637 441.951 116.637 442.973V445.813H117.677V448H115.437V446.693H114.877C114.601 447.156 114.233 447.516 113.77 447.773C113.308 448.022 112.73 448.147 112.037 448.147ZM112.37 446.467C112.788 446.467 113.157 446.391 113.477 446.24C113.797 446.089 114.05 445.889 114.237 445.64C114.424 445.382 114.517 445.093 114.517 444.773V444.653H112.33C111.53 444.653 111.13 444.951 111.13 445.547C111.13 445.84 111.241 446.067 111.464 446.227C111.686 446.387 111.988 446.467 112.37 446.467ZM124.175 448.16C123.5 448.16 122.922 448.031 122.442 447.773C121.971 447.516 121.593 447.156 121.308 446.693H120.748V448H118.508V445.813H119.602V436.8H121.815V441.093H121.868C122.108 440.693 122.437 440.387 122.855 440.173C123.273 439.951 123.775 439.84 124.362 439.84C125.135 439.84 125.793 440.013 126.335 440.36C126.877 440.698 127.291 441.182 127.575 441.813C127.86 442.436 128.002 443.164 128.002 444C128.002 444.827 127.855 445.556 127.562 446.187C127.268 446.809 126.837 447.293 126.268 447.64C125.7 447.987 125.002 448.16 124.175 448.16ZM123.762 446.24C124.437 446.24 124.944 446.04 125.282 445.64C125.62 445.24 125.788 444.693 125.788 444C125.788 443.307 125.62 442.76 125.282 442.36C124.944 441.96 124.437 441.76 123.762 441.76C123.166 441.76 122.691 441.929 122.335 442.267C121.988 442.596 121.815 443.053 121.815 443.64V444.36C121.815 444.947 121.988 445.409 122.335 445.747C122.691 446.076 123.166 446.24 123.762 446.24ZM131.912 448.147C130.97 448.147 130.232 447.92 129.699 447.467C129.165 447.004 128.899 446.4 128.899 445.653C128.899 444.862 129.174 444.253 129.725 443.827C130.276 443.4 131.068 443.187 132.099 443.187H134.392V442.88C134.392 442.018 133.876 441.587 132.845 441.587C131.948 441.587 131.405 441.898 131.219 442.52H129.019C129.196 441.64 129.61 440.973 130.259 440.52C130.908 440.067 131.77 439.84 132.845 439.84C134.036 439.84 134.943 440.107 135.565 440.64C136.196 441.173 136.512 441.951 136.512 442.973V445.813H137.552V448H135.312V446.693H134.752C134.476 447.156 134.108 447.516 133.645 447.773C133.183 448.022 132.605 448.147 131.912 448.147ZM132.245 446.467C132.663 446.467 133.032 446.391 133.352 446.24C133.672 446.089 133.925 445.889 134.112 445.64C134.299 445.382 134.392 445.093 134.392 444.773V444.653H132.205C131.405 444.653 131.005 444.951 131.005 445.547C131.005 445.84 131.116 446.067 131.339 446.227C131.561 446.387 131.863 446.467 132.245 446.467ZM142.181 448.16C141.363 448.16 140.665 447.987 140.087 447.64C139.519 447.293 139.087 446.809 138.794 446.187C138.501 445.556 138.354 444.827 138.354 444C138.354 443.164 138.496 442.436 138.781 441.813C139.065 441.182 139.479 440.698 140.021 440.36C140.572 440.013 141.23 439.84 141.994 439.84C142.581 439.84 143.083 439.951 143.501 440.173C143.927 440.387 144.256 440.693 144.487 441.093H144.541V436.8H146.754V445.813H147.847V448H145.607V446.693H145.047C144.763 447.156 144.381 447.516 143.901 447.773C143.43 448.031 142.856 448.16 142.181 448.16ZM142.594 446.24C143.19 446.24 143.661 446.076 144.007 445.747C144.363 445.409 144.541 444.947 144.541 444.36V443.64C144.541 443.053 144.363 442.596 144.007 442.267C143.661 441.929 143.19 441.76 142.594 441.76C141.919 441.76 141.412 441.96 141.074 442.36C140.736 442.76 140.567 443.307 140.567 444C140.567 444.693 140.736 445.24 141.074 445.64C141.412 446.04 141.919 446.24 142.594 446.24ZM149.664 448V442.187H148.571V440H150.811V441.307H151.398C151.682 440.844 152.051 440.489 152.504 440.24C152.958 439.982 153.518 439.853 154.184 439.853C154.824 439.853 155.371 439.969 155.824 440.2C156.286 440.422 156.655 440.756 156.931 441.2H156.984C157.598 440.302 158.509 439.853 159.718 439.853C160.749 439.853 161.566 440.156 162.171 440.76C162.775 441.356 163.078 442.164 163.078 443.187V448H160.864V443.613C160.864 442.422 160.3 441.827 159.171 441.827C158.042 441.827 157.478 442.422 157.478 443.613V448H155.264V443.613C155.264 442.422 154.691 441.827 153.544 441.827C152.993 441.827 152.575 441.973 152.291 442.267C152.015 442.56 151.878 443.009 151.878 443.613V448H149.664ZM168.645 448.16C167.774 448.16 167.014 447.991 166.365 447.653C165.725 447.307 165.227 446.822 164.872 446.2C164.516 445.578 164.338 444.84 164.338 443.987C164.338 443.142 164.512 442.409 164.858 441.787C165.214 441.164 165.716 440.684 166.365 440.347C167.014 440.009 167.778 439.84 168.658 439.84C169.53 439.84 170.285 440.009 170.925 440.347C171.565 440.684 172.058 441.164 172.405 441.787C172.752 442.409 172.925 443.147 172.925 444C172.925 444.844 172.752 445.582 172.405 446.213C172.058 446.836 171.561 447.316 170.912 447.653C170.272 447.991 169.516 448.16 168.645 448.16ZM168.645 446.24C169.312 446.24 169.823 446.04 170.178 445.64C170.534 445.231 170.712 444.68 170.712 443.987C170.712 443.293 170.534 442.751 170.178 442.36C169.823 441.96 169.312 441.76 168.645 441.76C167.97 441.76 167.45 441.96 167.085 442.36C166.73 442.751 166.552 443.293 166.552 443.987C166.552 444.68 166.73 445.231 167.085 445.64C167.45 446.04 167.97 446.24 168.645 446.24ZM173.767 448V446.667L177.927 441.76H174.007V440H180.727V441.333L176.567 446.24H180.807V448H173.767ZM185.931 451.36C184.731 451.36 183.753 451.116 182.998 450.627C182.251 450.147 181.806 449.476 181.664 448.613H184.011C184.224 449.271 184.842 449.6 185.864 449.6C186.558 449.6 187.086 449.44 187.451 449.12C187.824 448.809 188.011 448.356 188.011 447.76V446.693H187.944C187.704 447.12 187.371 447.444 186.944 447.667C186.526 447.889 186.024 448 185.438 448C184.682 448 184.024 447.836 183.464 447.507C182.913 447.169 182.482 446.693 182.171 446.08C181.869 445.467 181.718 444.747 181.718 443.92C181.718 442.676 182.06 441.684 182.744 440.947C183.438 440.209 184.384 439.84 185.584 439.84C186.26 439.84 186.833 439.969 187.304 440.227C187.784 440.484 188.166 440.844 188.451 441.307H189.011V440H191.251V442.187H190.158V447.787C190.158 448.924 189.793 449.804 189.064 450.427C188.335 451.049 187.291 451.36 185.931 451.36ZM185.984 446.08C186.598 446.08 187.078 445.911 187.424 445.573C187.771 445.236 187.944 444.773 187.944 444.187V443.627C187.944 443.049 187.766 442.596 187.411 442.267C187.064 441.929 186.589 441.76 185.984 441.76C185.335 441.76 184.829 441.951 184.464 442.333C184.109 442.716 183.931 443.249 183.931 443.933C183.931 444.618 184.109 445.147 184.464 445.52C184.829 445.893 185.335 446.08 185.984 446.08ZM195.084 448.147C194.142 448.147 193.404 447.92 192.871 447.467C192.337 447.004 192.071 446.4 192.071 445.653C192.071 444.862 192.346 444.253 192.897 443.827C193.448 443.4 194.239 443.187 195.271 443.187H197.564V442.88C197.564 442.018 197.048 441.587 196.017 441.587C195.119 441.587 194.577 441.898 194.391 442.52H192.191C192.368 441.64 192.782 440.973 193.431 440.52C194.079 440.067 194.942 439.84 196.017 439.84C197.208 439.84 198.115 440.107 198.737 440.64C199.368 441.173 199.684 441.951 199.684 442.973V445.813H200.724V448H198.484V446.693H197.924C197.648 447.156 197.279 447.516 196.817 447.773C196.355 448.022 195.777 448.147 195.084 448.147ZM195.417 446.467C195.835 446.467 196.204 446.391 196.524 446.24C196.844 446.089 197.097 445.889 197.284 445.64C197.471 445.382 197.564 445.093 197.564 444.773V444.653H195.377C194.577 444.653 194.177 444.951 194.177 445.547C194.177 445.84 194.288 446.067 194.511 446.227C194.733 446.387 195.035 446.467 195.417 446.467ZM194.777 439V438.947L196.217 436.547H198.591V436.6L196.497 439H194.777ZM205.473 448.16C204.299 448.16 203.37 447.916 202.686 447.427C202.01 446.929 201.646 446.236 201.593 445.347H203.726C203.797 445.729 203.979 446.013 204.273 446.2C204.575 446.387 205.006 446.48 205.566 446.48C206.481 446.48 206.939 446.227 206.939 445.72C206.939 445.516 206.868 445.356 206.726 445.24C206.593 445.116 206.366 445.022 206.046 444.96L204.259 444.613C202.659 444.302 201.859 443.551 201.859 442.36C201.859 441.596 202.166 440.987 202.779 440.533C203.393 440.071 204.241 439.84 205.326 439.84C206.401 439.84 207.255 440.076 207.886 440.547C208.517 441.018 208.864 441.676 208.926 442.52H206.793C206.695 442.147 206.521 441.876 206.273 441.707C206.024 441.538 205.664 441.453 205.193 441.453C204.784 441.453 204.473 441.516 204.259 441.64C204.046 441.756 203.939 441.933 203.939 442.173C203.939 442.342 204.006 442.484 204.139 442.6C204.273 442.716 204.477 442.8 204.753 442.853L206.579 443.2C207.415 443.369 208.028 443.64 208.419 444.013C208.81 444.387 209.006 444.893 209.006 445.533C209.006 446.36 208.699 447.004 208.086 447.467C207.481 447.929 206.61 448.16 205.473 448.16ZM214.129 448.16C213.258 448.16 212.498 447.991 211.849 447.653C211.209 447.307 210.712 446.822 210.356 446.2C210.001 445.578 209.823 444.84 209.823 443.987C209.823 443.142 209.996 442.409 210.343 441.787C210.698 441.164 211.201 440.684 211.849 440.347C212.498 440.009 213.263 439.84 214.143 439.84C215.014 439.84 215.769 440.009 216.409 440.347C217.049 440.684 217.543 441.164 217.889 441.787C218.236 442.409 218.409 443.147 218.409 444C218.409 444.844 218.236 445.582 217.889 446.213C217.543 446.836 217.045 447.316 216.396 447.653C215.756 447.991 215.001 448.16 214.129 448.16ZM214.129 446.24C214.796 446.24 215.307 446.04 215.663 445.64C216.018 445.231 216.196 444.68 216.196 443.987C216.196 443.293 216.018 442.751 215.663 442.36C215.307 441.96 214.796 441.76 214.129 441.76C213.454 441.76 212.934 441.96 212.569 442.36C212.214 442.751 212.036 443.293 212.036 443.987C212.036 444.68 212.214 445.231 212.569 445.64C212.934 446.04 213.454 446.24 214.129 446.24ZM223.238 448.16C222.065 448.16 221.136 447.916 220.452 447.427C219.776 446.929 219.412 446.236 219.358 445.347H221.492C221.563 445.729 221.745 446.013 222.038 446.2C222.34 446.387 222.772 446.48 223.332 446.48C224.247 446.48 224.705 446.227 224.705 445.72C224.705 445.516 224.634 445.356 224.492 445.24C224.358 445.116 224.132 445.022 223.812 444.96L222.025 444.613C220.425 444.302 219.625 443.551 219.625 442.36C219.625 441.596 219.932 440.987 220.545 440.533C221.158 440.071 222.007 439.84 223.092 439.84C224.167 439.84 225.02 440.076 225.652 440.547C226.283 441.018 226.629 441.676 226.692 442.52H224.558C224.46 442.147 224.287 441.876 224.038 441.707C223.789 441.538 223.429 441.453 222.958 441.453C222.549 441.453 222.238 441.516 222.025 441.64C221.812 441.756 221.705 441.933 221.705 442.173C221.705 442.342 221.772 442.484 221.905 442.6C222.038 442.716 222.243 442.8 222.518 442.853L224.345 443.2C225.18 443.369 225.794 443.64 226.185 444.013C226.576 444.387 226.772 444.893 226.772 445.533C226.772 446.36 226.465 447.004 225.852 447.467C225.247 447.929 224.376 448.16 223.238 448.16ZM235.396 448L231.09 437.2H233.57L236.73 445.44H236.796L239.916 437.2H242.343L238.036 448H235.396ZM243.641 448V437.2H249.228C250.383 437.2 251.286 437.462 251.934 437.987C252.592 438.502 252.921 439.218 252.921 440.133C252.921 440.711 252.783 441.204 252.508 441.613C252.241 442.022 251.863 442.311 251.374 442.48V442.547C251.863 442.547 252.241 442.68 252.508 442.947C252.783 443.204 252.921 443.596 252.921 444.12V448H250.654V443.893H245.894V448H243.641ZM245.894 441.933H249.081C249.597 441.933 249.992 441.813 250.268 441.573C250.552 441.333 250.694 440.991 250.694 440.547C250.694 440.102 250.552 439.76 250.268 439.52C249.992 439.28 249.597 439.16 249.081 439.16H245.894V441.933ZM262.373 448.16C261.511 448.16 260.76 447.991 260.12 447.653C259.48 447.307 258.986 446.822 258.64 446.2C258.293 445.569 258.12 444.827 258.12 443.973C258.12 443.12 258.289 442.387 258.626 441.773C258.964 441.151 259.444 440.676 260.066 440.347C260.697 440.009 261.44 439.84 262.293 439.84C263.129 439.84 263.844 440 264.44 440.32C265.044 440.64 265.506 441.098 265.826 441.693C266.146 442.289 266.306 443 266.306 443.827V444.573H260.24C260.329 445.169 260.555 445.622 260.92 445.933C261.284 446.244 261.764 446.4 262.36 446.4C262.831 446.4 263.204 446.32 263.48 446.16C263.755 446 263.951 445.756 264.066 445.427H266.28C266.102 446.28 265.671 446.951 264.986 447.44C264.302 447.92 263.431 448.16 262.373 448.16ZM260.293 443.107H264.186C264.115 442.6 263.92 442.222 263.6 441.973C263.28 441.716 262.849 441.587 262.306 441.587C261.764 441.587 261.32 441.716 260.973 441.973C260.635 442.231 260.409 442.609 260.293 443.107ZM260.946 439V438.947L262.386 436.547H264.76V436.6L262.666 439H260.946ZM267.662 448V436.8H269.876V448H267.662ZM272.242 448V442.187H271.149V440H273.389V441.307H273.976C274.26 440.844 274.629 440.489 275.082 440.24C275.536 439.982 276.096 439.853 276.762 439.853C277.402 439.853 277.949 439.969 278.402 440.2C278.865 440.422 279.234 440.756 279.509 441.2H279.562C280.176 440.302 281.087 439.853 282.296 439.853C283.327 439.853 284.145 440.156 284.749 440.76C285.354 441.356 285.656 442.164 285.656 443.187V448H283.442V443.613C283.442 442.422 282.878 441.827 281.749 441.827C280.62 441.827 280.056 442.422 280.056 443.613V448H277.842V443.613C277.842 442.422 277.269 441.827 276.122 441.827C275.571 441.827 275.154 441.973 274.869 442.267C274.594 442.56 274.456 443.009 274.456 443.613V448H272.242ZM291.17 448.16C290.308 448.16 289.557 447.991 288.917 447.653C288.277 447.307 287.783 446.822 287.437 446.2C287.09 445.569 286.917 444.827 286.917 443.973C286.917 443.12 287.085 442.387 287.423 441.773C287.761 441.151 288.241 440.676 288.863 440.347C289.494 440.009 290.237 439.84 291.09 439.84C291.925 439.84 292.641 440 293.237 440.32C293.841 440.64 294.303 441.098 294.623 441.693C294.943 442.289 295.103 443 295.103 443.827V444.573H289.037C289.125 445.169 289.352 445.622 289.717 445.933C290.081 446.244 290.561 446.4 291.157 446.4C291.628 446.4 292.001 446.32 292.277 446.16C292.552 446 292.748 445.756 292.863 445.427H295.077C294.899 446.28 294.468 446.951 293.783 447.44C293.099 447.92 292.228 448.16 291.17 448.16ZM289.09 443.107H292.983C292.912 442.6 292.717 442.222 292.397 441.973C292.077 441.716 291.645 441.587 291.103 441.587C290.561 441.587 290.117 441.716 289.77 441.973C289.432 442.231 289.205 442.609 289.09 443.107ZM289.743 439V438.947L291.183 436.547H293.557V436.6L291.463 439H289.743ZM296.992 448V442.187H295.899V440H298.139V441.307H298.699C299.01 440.844 299.401 440.489 299.872 440.24C300.344 439.982 300.93 439.853 301.632 439.853C302.744 439.853 303.601 440.16 304.206 440.773C304.819 441.378 305.126 442.191 305.126 443.213V448H302.912V443.627C302.912 443.04 302.752 442.596 302.432 442.293C302.121 441.982 301.664 441.827 301.059 441.827C300.455 441.827 299.992 441.982 299.672 442.293C299.361 442.596 299.206 443.04 299.206 443.627V448H296.992ZM306.826 451.2V449.427H308.586L309.213 447.933L305.76 440H308.106L310.346 445.387H310.4L312.586 440H314.853L311.426 448L310.773 449.547C310.551 450.071 310.293 450.476 310 450.76C309.706 451.053 309.257 451.2 308.653 451.2H306.826Z" fill="#EAF4EC"/>
<path d="M56.899 484L60.6148 475.225H62.4998L66.1723 484H64.2873L63.3882 481.855H59.6398L58.719 484H56.899ZM60.214 480.317H62.8898L61.579 477.153H61.5248L60.214 480.317ZM66.9454 484V474.9H68.7437V478.432H68.787C68.9965 478.085 69.2782 477.825 69.632 477.652C69.9859 477.471 70.4048 477.381 70.8887 477.381C71.7048 477.381 72.3512 477.63 72.8279 478.128C73.3118 478.619 73.5537 479.28 73.5537 480.111V484H71.7554V480.447C71.7554 479.97 71.6254 479.609 71.3654 479.363C71.1126 479.111 70.7407 478.984 70.2495 478.984C69.7584 478.984 69.3829 479.111 69.1229 479.363C68.8701 479.609 68.7437 479.97 68.7437 480.447V484H66.9454ZM78.0705 484.13C77.3628 484.13 76.7453 483.993 76.218 483.718C75.698 483.437 75.2936 483.043 75.0047 482.537C74.7158 482.032 74.5714 481.432 74.5714 480.739C74.5714 480.053 74.7122 479.457 74.9939 478.952C75.2828 478.446 75.6908 478.056 76.218 477.782C76.7453 477.507 77.3664 477.37 78.0814 477.37C78.7891 477.37 79.403 477.507 79.923 477.782C80.443 478.056 80.8439 478.446 81.1255 478.952C81.4072 479.457 81.548 480.057 81.548 480.75C81.548 481.436 81.4072 482.036 81.1255 482.548C80.8439 483.054 80.4394 483.444 79.9122 483.718C79.3922 483.993 78.7783 484.13 78.0705 484.13ZM78.0705 482.57C78.6122 482.57 79.0275 482.407 79.3164 482.082C79.6053 481.75 79.7497 481.302 79.7497 480.739C79.7497 480.176 79.6053 479.735 79.3164 479.417C79.0275 479.092 78.6122 478.93 78.0705 478.93C77.5216 478.93 77.0991 479.092 76.803 479.417C76.5141 479.735 76.3697 480.176 76.3697 480.739C76.3697 481.302 76.5141 481.75 76.803 482.082C77.0991 482.407 77.5216 482.57 78.0705 482.57ZM82.6547 484V474.9H84.4531V484H82.6547ZM89.4484 484V479.277H88.5601V477.5H90.3801V478.562H90.8351C91.0879 478.186 91.4056 477.897 91.7884 477.695C92.1712 477.486 92.6479 477.381 93.2184 477.381C94.1212 477.381 94.8181 477.63 95.3092 478.128C95.8076 478.619 96.0567 479.28 96.0567 480.111V484H94.2584V480.447C94.2584 479.97 94.1284 479.609 93.8684 479.363C93.6156 479.111 93.2437 478.984 92.7526 478.984C92.2615 478.984 91.8859 479.111 91.6259 479.363C91.3731 479.609 91.2467 479.97 91.2467 480.447V484H89.4484ZM97.4702 484V477.5H99.2685V484H97.4702ZM98.3693 476.861C98.0949 476.861 97.8602 476.767 97.6652 476.579C97.4774 476.384 97.3835 476.149 97.3835 475.875C97.3835 475.601 97.4774 475.369 97.6652 475.182C97.8602 474.987 98.0949 474.889 98.3693 474.889C98.6438 474.889 98.8749 474.987 99.0627 475.182C99.2577 475.369 99.3552 475.601 99.3552 475.875C99.3552 476.149 99.2577 476.384 99.0627 476.579C98.8749 476.767 98.6438 476.861 98.3693 476.861ZM101.192 484V479.277H100.303V477.5H102.123V478.562H102.578C102.831 478.186 103.149 477.897 103.532 477.695C103.914 477.486 104.391 477.381 104.962 477.381C105.864 477.381 106.561 477.63 107.052 478.128C107.551 478.619 107.8 479.28 107.8 480.111V484H106.002V480.447C106.002 479.97 105.872 479.609 105.612 479.363C105.359 479.111 104.987 478.984 104.496 478.984C104.005 478.984 103.629 479.111 103.369 479.363C103.116 479.609 102.99 479.97 102.99 480.447V484H101.192ZM112.225 484.13C111.546 484.13 110.95 483.993 110.437 483.718C109.932 483.437 109.535 483.043 109.246 482.537C108.964 482.032 108.823 481.436 108.823 480.75C108.823 480.064 108.964 479.468 109.246 478.962C109.527 478.457 109.925 478.067 110.437 477.792C110.95 477.511 111.546 477.37 112.225 477.37C113.084 477.37 113.792 477.587 114.348 478.02C114.904 478.453 115.255 479.049 115.399 479.807H113.59C113.496 479.526 113.334 479.309 113.102 479.157C112.871 479.006 112.579 478.93 112.225 478.93C111.741 478.93 111.351 479.089 111.055 479.407C110.766 479.724 110.622 480.172 110.622 480.75C110.622 481.328 110.77 481.776 111.066 482.093C111.362 482.411 111.748 482.57 112.225 482.57C112.991 482.57 113.456 482.245 113.622 481.595H115.432C115.302 482.389 114.959 483.011 114.402 483.458C113.846 483.906 113.121 484.13 112.225 484.13ZM119.076 484.13C118.123 484.13 117.368 483.931 116.812 483.534C116.263 483.13 115.967 482.566 115.923 481.844H117.657C117.714 482.155 117.863 482.386 118.101 482.537C118.346 482.689 118.697 482.765 119.152 482.765C119.896 482.765 120.268 482.559 120.268 482.148C120.268 481.981 120.21 481.851 120.094 481.758C119.986 481.656 119.802 481.581 119.542 481.53L118.09 481.248C116.79 480.996 116.14 480.385 116.14 479.417C116.14 478.796 116.389 478.302 116.888 477.933C117.386 477.558 118.076 477.37 118.957 477.37C119.831 477.37 120.524 477.561 121.037 477.944C121.549 478.327 121.831 478.861 121.882 479.547H120.148C120.069 479.244 119.928 479.024 119.726 478.887C119.524 478.749 119.231 478.681 118.848 478.681C118.516 478.681 118.263 478.731 118.09 478.832C117.917 478.926 117.83 479.071 117.83 479.266C117.83 479.403 117.884 479.519 117.993 479.612C118.101 479.706 118.267 479.775 118.491 479.818L119.975 480.1C120.654 480.237 121.152 480.458 121.47 480.761C121.788 481.064 121.947 481.476 121.947 481.996C121.947 482.667 121.698 483.191 121.199 483.567C120.708 483.942 120 484.13 119.076 484.13ZM126.066 484.13C125.366 484.13 124.755 483.993 124.235 483.718C123.715 483.437 123.315 483.043 123.033 482.537C122.751 482.025 122.61 481.422 122.61 480.728C122.61 480.035 122.748 479.439 123.022 478.941C123.297 478.435 123.687 478.049 124.192 477.782C124.705 477.507 125.308 477.37 126.001 477.37C126.68 477.37 127.262 477.5 127.745 477.76C128.237 478.02 128.612 478.392 128.872 478.876C129.132 479.36 129.262 479.937 129.262 480.609V481.216H124.333C124.405 481.7 124.589 482.068 124.885 482.321C125.182 482.574 125.572 482.7 126.055 482.7C126.438 482.7 126.742 482.635 126.965 482.505C127.189 482.375 127.348 482.176 127.442 481.909H129.24C129.096 482.602 128.746 483.148 128.19 483.545C127.633 483.935 126.926 484.13 126.066 484.13ZM124.376 480.024H127.54C127.482 479.612 127.323 479.306 127.063 479.103C126.803 478.894 126.453 478.789 126.012 478.789C125.572 478.789 125.21 478.894 124.929 479.103C124.654 479.313 124.47 479.62 124.376 480.024ZM130.797 484V479.277H129.909V477.5H131.729V478.562H132.184C132.436 478.186 132.754 477.897 133.137 477.695C133.52 477.486 133.996 477.381 134.567 477.381C135.47 477.381 136.167 477.63 136.658 478.128C137.156 478.619 137.405 479.28 137.405 480.111V484H135.607V480.447C135.607 479.97 135.477 479.609 135.217 479.363C134.964 479.111 134.592 478.984 134.101 478.984C133.61 478.984 133.235 479.111 132.975 479.363C132.722 479.609 132.595 479.97 132.595 480.447V484H130.797ZM141.885 484.13C141.184 484.13 140.574 483.993 140.054 483.718C139.534 483.437 139.133 483.043 138.851 482.537C138.57 482.025 138.429 481.422 138.429 480.728C138.429 480.035 138.566 479.439 138.84 478.941C139.115 478.435 139.505 478.049 140.01 477.782C140.523 477.507 141.126 477.37 141.82 477.37C142.499 477.37 143.08 477.5 143.564 477.76C144.055 478.02 144.43 478.392 144.69 478.876C144.95 479.36 145.08 479.937 145.08 480.609V481.216H140.151C140.224 481.7 140.408 482.068 140.704 482.321C141 482.574 141.39 482.7 141.874 482.7C142.257 482.7 142.56 482.635 142.784 482.505C143.008 482.375 143.167 482.176 143.26 481.909H145.059C144.914 482.602 144.564 483.148 144.008 483.545C143.452 483.935 142.744 484.13 141.885 484.13ZM140.195 480.024H143.358C143.3 479.612 143.141 479.306 142.881 479.103C142.621 478.894 142.271 478.789 141.83 478.789C141.39 478.789 141.029 478.894 140.747 479.103C140.473 479.313 140.289 479.62 140.195 480.024ZM146.139 484V474.9H147.937V479.829H147.98L150.537 477.5H152.682L149.92 479.992L152.888 484H150.786L148.652 481.086L147.937 481.671V484H146.139ZM156.777 484V474.9H158.576V479.829H158.619L161.176 477.5H163.321L160.558 479.992L163.527 484H161.425L159.291 481.086L158.576 481.671V484H156.777ZM166.24 484.119C165.475 484.119 164.875 483.935 164.442 483.567C164.009 483.191 163.792 482.7 163.792 482.093C163.792 481.451 164.016 480.956 164.464 480.609C164.912 480.262 165.554 480.089 166.392 480.089H168.255V479.84C168.255 479.139 167.837 478.789 166.999 478.789C166.269 478.789 165.829 479.042 165.677 479.547H163.89C164.034 478.832 164.37 478.291 164.897 477.922C165.424 477.554 166.125 477.37 166.999 477.37C167.967 477.37 168.703 477.587 169.209 478.02C169.722 478.453 169.978 479.085 169.978 479.916V482.223H170.823V484H169.003V482.938H168.548C168.324 483.314 168.024 483.606 167.649 483.816C167.273 484.018 166.804 484.119 166.24 484.119ZM166.511 482.754C166.851 482.754 167.15 482.693 167.41 482.57C167.67 482.447 167.876 482.285 168.028 482.082C168.18 481.873 168.255 481.638 168.255 481.378V481.281H166.479C165.829 481.281 165.504 481.523 165.504 482.007C165.504 482.245 165.594 482.429 165.775 482.559C165.955 482.689 166.201 482.754 166.511 482.754ZM165.991 476.688V476.644L167.161 474.694H169.09V474.737L167.389 476.688H165.991ZM176.103 484.13C175.554 484.13 175.084 484.025 174.694 483.816C174.312 483.606 174.005 483.314 173.774 482.938H173.319V484H171.499V482.223H172.387V474.9H174.185V478.388H174.229C174.424 478.063 174.691 477.814 175.03 477.641C175.37 477.46 175.778 477.37 176.254 477.37C176.883 477.37 177.417 477.511 177.858 477.792C178.298 478.067 178.634 478.461 178.865 478.973C179.096 479.479 179.212 480.071 179.212 480.75C179.212 481.422 179.093 482.014 178.854 482.527C178.616 483.032 178.266 483.426 177.804 483.707C177.341 483.989 176.774 484.13 176.103 484.13ZM175.767 482.57C176.316 482.57 176.727 482.407 177.002 482.082C177.276 481.757 177.414 481.313 177.414 480.75C177.414 480.187 177.276 479.742 177.002 479.417C176.727 479.092 176.316 478.93 175.767 478.93C175.283 478.93 174.897 479.067 174.608 479.342C174.326 479.609 174.185 479.981 174.185 480.457V481.042C174.185 481.519 174.326 481.895 174.608 482.169C174.897 482.436 175.283 482.57 175.767 482.57ZM183.386 484.13C182.685 484.13 182.075 483.993 181.555 483.718C181.035 483.437 180.634 483.043 180.352 482.537C180.071 482.025 179.93 481.422 179.93 480.728C179.93 480.035 180.067 479.439 180.341 478.941C180.616 478.435 181.006 478.049 181.511 477.782C182.024 477.507 182.627 477.37 183.321 477.37C183.999 477.37 184.581 477.5 185.065 477.76C185.556 478.02 185.931 478.392 186.191 478.876C186.451 479.36 186.581 479.937 186.581 480.609V481.216H181.652C181.724 481.7 181.909 482.068 182.205 482.321C182.501 482.574 182.891 482.7 183.375 482.7C183.758 482.7 184.061 482.635 184.285 482.505C184.509 482.375 184.668 482.176 184.761 481.909H186.56C186.415 482.602 186.065 483.148 185.509 483.545C184.953 483.935 184.245 484.13 183.386 484.13ZM181.696 480.024H184.859C184.801 479.612 184.642 479.306 184.382 479.103C184.122 478.894 183.772 478.789 183.331 478.789C182.891 478.789 182.53 478.894 182.248 479.103C181.974 479.313 181.789 479.62 181.696 480.024ZM187.683 484V474.9H189.481V484H187.683ZM194.037 484.13C193.336 484.13 192.726 483.993 192.206 483.718C191.686 483.437 191.285 483.043 191.004 482.537C190.722 482.025 190.581 481.422 190.581 480.728C190.581 480.035 190.718 479.439 190.993 478.941C191.267 478.435 191.657 478.049 192.163 477.782C192.676 477.507 193.279 477.37 193.972 477.37C194.651 477.37 195.232 477.5 195.716 477.76C196.207 478.02 196.583 478.392 196.843 478.876C197.103 479.36 197.233 479.937 197.233 480.609V481.216H192.304C192.376 481.7 192.56 482.068 192.856 482.321C193.152 482.574 193.542 482.7 194.026 482.7C194.409 482.7 194.712 482.635 194.936 482.505C195.16 482.375 195.319 482.176 195.413 481.909H197.211C197.067 482.602 196.716 483.148 196.16 483.545C195.604 483.935 194.896 484.13 194.037 484.13ZM192.347 480.024H195.51C195.453 479.612 195.294 479.306 195.034 479.103C194.774 478.894 194.423 478.789 193.983 478.789C193.542 478.789 193.181 478.894 192.899 479.103C192.625 479.313 192.441 479.62 192.347 480.024ZM198.291 484V474.9H200.089V479.829H200.133L202.689 477.5H204.834L202.072 479.992L205.04 484H202.939L200.804 481.086L200.089 481.671V484H198.291ZM205.565 485.907V484.867H206.063C206.266 484.867 206.414 484.813 206.507 484.704C206.601 484.596 206.648 484.455 206.648 484.282V484H205.749V482.072H207.721V484.357C207.721 484.841 207.594 485.221 207.342 485.495C207.089 485.769 206.699 485.907 206.172 485.907H205.565ZM212.568 484V479.277H211.679V477.5H213.499V478.562H213.954C214.207 478.186 214.525 477.897 214.908 477.695C215.29 477.486 215.767 477.381 216.338 477.381C217.24 477.381 217.937 477.63 218.428 478.128C218.927 478.619 219.176 479.28 219.176 480.111V484H217.378V480.447C217.378 479.97 217.248 479.609 216.988 479.363C216.735 479.111 216.363 478.984 215.872 478.984C215.381 478.984 215.005 479.111 214.745 479.363C214.492 479.609 214.366 479.97 214.366 480.447V484H212.568ZM220.589 484V477.5H222.388V484H220.589ZM221.488 476.861C221.214 476.861 220.979 476.767 220.784 476.579C220.597 476.384 220.503 476.149 220.503 475.875C220.503 475.601 220.597 475.369 220.784 475.182C220.979 474.987 221.214 474.889 221.488 474.889C221.763 474.889 221.994 474.987 222.182 475.182C222.377 475.369 222.474 475.601 222.474 475.875C222.474 476.149 222.377 476.384 222.182 476.579C221.994 476.767 221.763 476.861 221.488 476.861ZM224.311 484V479.277H223.422V477.5H225.242V478.562H225.697C225.95 478.186 226.268 477.897 226.651 477.695C227.033 477.486 227.51 477.381 228.081 477.381C228.983 477.381 229.68 477.63 230.172 478.128C230.67 478.619 230.919 479.28 230.919 480.111V484H229.121V480.447C229.121 479.97 228.991 479.609 228.731 479.363C228.478 479.111 228.106 478.984 227.615 478.984C227.124 478.984 226.748 479.111 226.488 479.363C226.235 479.609 226.109 479.97 226.109 480.447V484H224.311ZM235.344 484.13C234.665 484.13 234.069 483.993 233.557 483.718C233.051 483.437 232.654 483.043 232.365 482.537C232.083 482.032 231.942 481.436 231.942 480.75C231.942 480.064 232.083 479.468 232.365 478.962C232.647 478.457 233.044 478.067 233.557 477.792C234.069 477.511 234.665 477.37 235.344 477.37C236.204 477.37 236.911 477.587 237.467 478.02C238.024 478.453 238.374 479.049 238.518 479.807H236.709C236.615 479.526 236.453 479.309 236.222 479.157C235.991 479.006 235.698 478.93 235.344 478.93C234.86 478.93 234.47 479.089 234.174 479.407C233.885 479.724 233.741 480.172 233.741 480.75C233.741 481.328 233.889 481.776 234.185 482.093C234.481 482.411 234.867 482.57 235.344 482.57C236.11 482.57 236.576 482.245 236.742 481.595H238.551C238.421 482.389 238.078 483.011 237.522 483.458C236.966 483.906 236.24 484.13 235.344 484.13ZM242.195 484.13C241.242 484.13 240.487 483.931 239.931 483.534C239.382 483.13 239.086 482.566 239.043 481.844H240.776C240.834 482.155 240.982 482.386 241.22 482.537C241.466 482.689 241.816 482.765 242.271 482.765C243.015 482.765 243.387 482.559 243.387 482.148C243.387 481.981 243.329 481.851 243.213 481.758C243.105 481.656 242.921 481.581 242.661 481.53L241.209 481.248C239.909 480.996 239.259 480.385 239.259 479.417C239.259 478.796 239.508 478.302 240.007 477.933C240.505 477.558 241.195 477.37 242.076 477.37C242.95 477.37 243.643 477.561 244.156 477.944C244.669 478.327 244.95 478.861 245.001 479.547H243.268C243.188 479.244 243.047 479.024 242.845 478.887C242.643 478.749 242.35 478.681 241.968 478.681C241.635 478.681 241.383 478.731 241.209 478.832C241.036 478.926 240.949 479.071 240.949 479.266C240.949 479.403 241.003 479.519 241.112 479.612C241.22 479.706 241.386 479.775 241.61 479.818L243.094 480.1C243.773 480.237 244.271 480.458 244.589 480.761C244.907 481.064 245.066 481.476 245.066 481.996C245.066 482.667 244.817 483.191 244.318 483.567C243.827 483.942 243.119 484.13 242.195 484.13ZM249.185 484.13C248.485 484.13 247.875 483.993 247.355 483.718C246.835 483.437 246.434 483.043 246.152 482.537C245.87 482.025 245.73 481.422 245.73 480.728C245.73 480.035 245.867 479.439 246.141 478.941C246.416 478.435 246.806 478.049 247.311 477.782C247.824 477.507 248.427 477.37 249.12 477.37C249.799 477.37 250.381 477.5 250.865 477.76C251.356 478.02 251.731 478.392 251.991 478.876C252.251 479.36 252.381 479.937 252.381 480.609V481.216H247.452C247.524 481.7 247.708 482.068 248.005 482.321C248.301 482.574 248.691 482.7 249.175 482.7C249.557 482.7 249.861 482.635 250.085 482.505C250.308 482.375 250.467 482.176 250.561 481.909H252.36C252.215 482.602 251.865 483.148 251.309 483.545C250.753 483.935 250.045 484.13 249.185 484.13ZM247.495 480.024H250.659C250.601 479.612 250.442 479.306 250.182 479.103C249.922 478.894 249.572 478.789 249.131 478.789C248.691 478.789 248.33 478.894 248.048 479.103C247.773 479.313 247.589 479.62 247.495 480.024ZM253.916 484V479.277H253.028V477.5H254.848V478.562H255.303C255.556 478.186 255.873 477.897 256.256 477.695C256.639 477.486 257.116 477.381 257.686 477.381C258.589 477.381 259.286 477.63 259.777 478.128C260.275 478.619 260.525 479.28 260.525 480.111V484H258.726V480.447C258.726 479.97 258.596 479.609 258.336 479.363C258.083 479.111 257.711 478.984 257.22 478.984C256.729 478.984 256.354 479.111 256.094 479.363C255.841 479.609 255.715 479.97 255.715 480.447V484H253.916ZM265.004 484.13C264.303 484.13 263.693 483.993 263.173 483.718C262.653 483.437 262.252 483.043 261.97 482.537C261.689 482.025 261.548 481.422 261.548 480.728C261.548 480.035 261.685 479.439 261.96 478.941C262.234 478.435 262.624 478.049 263.13 477.782C263.642 477.507 264.245 477.37 264.939 477.37C265.618 477.37 266.199 477.5 266.683 477.76C267.174 478.02 267.55 478.392 267.81 478.876C268.07 479.36 268.2 479.937 268.2 480.609V481.216H263.27C263.343 481.7 263.527 482.068 263.823 482.321C264.119 482.574 264.509 482.7 264.993 482.7C265.376 482.7 265.679 482.635 265.903 482.505C266.127 482.375 266.286 482.176 266.38 481.909H268.178C268.033 482.602 267.683 483.148 267.127 483.545C266.571 483.935 265.863 484.13 265.004 484.13ZM263.314 480.024H266.477C266.419 479.612 266.26 479.306 266 479.103C265.74 478.894 265.39 478.789 264.95 478.789C264.509 478.789 264.148 478.894 263.866 479.103C263.592 479.313 263.408 479.62 263.314 480.024ZM269.258 484V474.9H271.056V479.829H271.1L273.656 477.5H275.801L273.039 479.992L276.007 484H273.905L271.771 481.086L271.056 481.671V484H269.258ZM279.897 484V474.9H281.695V478.432H281.738C281.948 478.085 282.229 477.825 282.583 477.652C282.937 477.471 283.356 477.381 283.84 477.381C284.656 477.381 285.302 477.63 285.779 478.128C286.263 478.619 286.505 479.28 286.505 480.111V484H284.707V480.447C284.707 479.97 284.577 479.609 284.317 479.363C284.064 479.111 283.692 478.984 283.201 478.984C282.71 478.984 282.334 479.111 282.074 479.363C281.821 479.609 281.695 479.97 281.695 480.447V484H279.897ZM289.982 484.119C289.216 484.119 288.617 483.935 288.183 483.567C287.75 483.191 287.533 482.7 287.533 482.093C287.533 481.451 287.757 480.956 288.205 480.609C288.653 480.262 289.296 480.089 290.133 480.089H291.997V479.84C291.997 479.139 291.578 478.789 290.74 478.789C290.011 478.789 289.57 479.042 289.418 479.547H287.631C287.775 478.832 288.111 478.291 288.638 477.922C289.166 477.554 289.866 477.37 290.74 477.37C291.708 477.37 292.444 477.587 292.95 478.02C293.463 478.453 293.719 479.085 293.719 479.916V482.223H294.564V484H292.744V482.938H292.289C292.065 483.314 291.766 483.606 291.39 483.816C291.014 484.018 290.545 484.119 289.982 484.119ZM290.253 482.754C290.592 482.754 290.892 482.693 291.152 482.57C291.412 482.447 291.618 482.285 291.769 482.082C291.921 481.873 291.997 481.638 291.997 481.378V481.281H290.22C289.57 481.281 289.245 481.523 289.245 482.007C289.245 482.245 289.335 482.429 289.516 482.559C289.696 482.689 289.942 482.754 290.253 482.754ZM297.632 484C297.17 484 296.808 483.884 296.548 483.653C296.296 483.415 296.169 483.054 296.169 482.57V478.908H295.053V477.5H296.191V475.55H297.946V477.5H299.452V478.908H297.968V482.592H299.603V484H297.632ZM302.677 484.119C301.911 484.119 301.312 483.935 300.879 483.567C300.445 483.191 300.229 482.7 300.229 482.093C300.229 481.451 300.453 480.956 300.9 480.609C301.348 480.262 301.991 480.089 302.829 480.089H304.692V479.84C304.692 479.139 304.273 478.789 303.435 478.789C302.706 478.789 302.265 479.042 302.114 479.547H300.326C300.471 478.832 300.806 478.291 301.334 477.922C301.861 477.554 302.561 477.37 303.435 477.37C304.403 477.37 305.14 477.587 305.645 478.02C306.158 478.453 306.415 479.085 306.415 479.916V482.223H307.26V484H305.44V482.938H304.985C304.761 483.314 304.461 483.606 304.085 483.816C303.71 484.018 303.24 484.119 302.677 484.119ZM302.948 482.754C303.287 482.754 303.587 482.693 303.847 482.57C304.107 482.447 304.313 482.285 304.465 482.082C304.616 481.873 304.692 481.638 304.692 481.378V481.281H302.915C302.265 481.281 301.94 481.523 301.94 482.007C301.94 482.245 302.031 482.429 302.211 482.559C302.392 482.689 302.637 482.754 302.948 482.754ZM302.428 476.688V476.644L303.598 474.694H305.526V474.737L303.825 476.688H302.428ZM308.616 484V479.277H307.728V477.5H309.548V478.778H310.003C310.176 478.323 310.451 477.984 310.826 477.76C311.202 477.536 311.624 477.424 312.094 477.424H312.646V478.984H312.018C311.455 478.984 311.039 479.143 310.772 479.461C310.512 479.779 310.382 480.198 310.382 480.718V484H308.616ZM316.438 484.13C315.73 484.13 315.112 483.993 314.585 483.718C314.065 483.437 313.661 483.043 313.372 482.537C313.083 482.032 312.939 481.432 312.939 480.739C312.939 480.053 313.079 479.457 313.361 478.952C313.65 478.446 314.058 478.056 314.585 477.782C315.112 477.507 315.734 477.37 316.449 477.37C317.156 477.37 317.77 477.507 318.29 477.782C318.81 478.056 319.211 478.446 319.493 478.952C319.774 479.457 319.915 480.057 319.915 480.75C319.915 481.436 319.774 482.036 319.493 482.548C319.211 483.054 318.807 483.444 318.279 483.718C317.759 483.993 317.145 484.13 316.438 484.13ZM316.438 482.57C316.979 482.57 317.395 482.407 317.684 482.082C317.972 481.75 318.117 481.302 318.117 480.739C318.117 480.176 317.972 479.735 317.684 479.417C317.395 479.092 316.979 478.93 316.438 478.93C315.889 478.93 315.466 479.092 315.17 479.417C314.881 479.735 314.737 480.176 314.737 480.739C314.737 481.302 314.881 481.75 315.17 482.082C315.466 482.407 315.889 482.57 316.438 482.57ZM320.979 484V474.9H322.777V479.829H322.82L325.377 477.5H327.522L324.759 479.992L327.728 484H325.626L323.492 481.086L322.777 481.671V484H320.979ZM331.368 481.508V479.992H334.705V481.508H331.368ZM55.7499 500.13C55.071 500.13 54.4752 499.993 53.9624 499.718C53.4568 499.437 53.0596 499.043 52.7707 498.537C52.4891 498.032 52.3482 497.436 52.3482 496.75C52.3482 496.064 52.4891 495.468 52.7707 494.962C53.0524 494.457 53.4496 494.067 53.9624 493.792C54.4752 493.511 55.071 493.37 55.7499 493.37C56.6093 493.37 57.3171 493.587 57.8732 494.02C58.4293 494.453 58.7796 495.049 58.9241 495.807H57.1149C57.021 495.526 56.8585 495.309 56.6274 495.157C56.3963 495.006 56.1038 494.93 55.7499 494.93C55.266 494.93 54.876 495.089 54.5799 495.407C54.291 495.724 54.1466 496.172 54.1466 496.75C54.1466 497.328 54.2946 497.776 54.5907 498.093C54.8868 498.411 55.2732 498.57 55.7499 498.57C56.5154 498.57 56.9813 498.245 57.1474 497.595H58.9566C58.8266 498.389 58.4835 499.011 57.9274 499.458C57.3713 499.906 56.6454 500.13 55.7499 500.13ZM62.6008 500.13C61.6475 500.13 60.8927 499.931 60.3366 499.534C59.7877 499.13 59.4916 498.566 59.4483 497.844H61.1816C61.2394 498.155 61.3875 498.386 61.6258 498.537C61.8713 498.689 62.2216 498.765 62.6766 498.765C63.4205 498.765 63.7925 498.559 63.7925 498.148C63.7925 497.981 63.7347 497.851 63.6191 497.758C63.5108 497.656 63.3266 497.581 63.0666 497.53L61.615 497.248C60.315 496.996 59.665 496.385 59.665 495.417C59.665 494.796 59.9141 494.302 60.4125 493.933C60.9108 493.558 61.6005 493.37 62.4816 493.37C63.3555 493.37 64.0488 493.561 64.5616 493.944C65.0744 494.327 65.3561 494.861 65.4066 495.547H63.6733C63.5938 495.244 63.453 495.024 63.2508 494.887C63.0486 494.749 62.7561 494.681 62.3733 494.681C62.0411 494.681 61.7883 494.731 61.615 494.832C61.4416 494.926 61.355 495.071 61.355 495.266C61.355 495.403 61.4091 495.519 61.5175 495.612C61.6258 495.706 61.7919 495.775 62.0158 495.818L63.5 496.1C64.1788 496.237 64.6772 496.458 64.995 496.761C65.3127 497.064 65.4716 497.476 65.4716 497.996C65.4716 498.667 65.2225 499.191 64.7241 499.567C64.233 499.942 63.5252 500.13 62.6008 500.13ZM68.5945 500.119C67.8289 500.119 67.2295 499.935 66.7962 499.567C66.3628 499.191 66.1462 498.7 66.1462 498.093C66.1462 497.451 66.3701 496.956 66.8178 496.609C67.2656 496.262 67.9084 496.089 68.7462 496.089H70.6095V495.84C70.6095 495.139 70.1906 494.789 69.3528 494.789C68.6234 494.789 68.1828 495.042 68.0312 495.547H66.2437C66.3881 494.832 66.7239 494.291 67.2512 493.922C67.7784 493.554 68.4789 493.37 69.3528 493.37C70.3206 493.37 71.0573 493.587 71.5628 494.02C72.0756 494.453 72.332 495.085 72.332 495.916V498.223H73.177V500H71.357V498.938H70.902C70.6781 499.314 70.3784 499.606 70.0028 499.816C69.6273 500.018 69.1578 500.119 68.5945 500.119ZM68.8653 498.754C69.2048 498.754 69.5045 498.693 69.7645 498.57C70.0245 498.447 70.2303 498.285 70.382 498.082C70.5337 497.873 70.6095 497.638 70.6095 497.378V497.281H68.8328C68.1828 497.281 67.8578 497.523 67.8578 498.007C67.8578 498.245 67.9481 498.429 68.1287 498.559C68.3092 498.689 68.5548 498.754 68.8653 498.754ZM74.2642 500V490.9H76.0626V495.829H76.1059L78.6626 493.5H80.8076L78.0451 495.992L81.0134 500H78.9117L76.7776 497.086L76.0626 497.671V500H74.2642ZM89.1062 500H87.3079V492.828H84.4587V491.225H91.9554V492.828H89.1062V500ZM94.9437 500.13C94.2431 500.13 93.6329 499.993 93.1129 499.718C92.5929 499.437 92.192 499.043 91.9104 498.537C91.6287 498.025 91.4879 497.422 91.4879 496.728C91.4879 496.035 91.6251 495.439 91.8995 494.941C92.174 494.435 92.564 494.049 93.0695 493.782C93.5823 493.507 94.1854 493.37 94.8787 493.37C95.5576 493.37 96.139 493.5 96.6229 493.76C97.114 494.02 97.4895 494.392 97.7495 494.876C98.0095 495.36 98.1395 495.937 98.1395 496.609V497.216H93.2104C93.2826 497.7 93.4668 498.068 93.7629 498.321C94.059 498.574 94.449 498.7 94.9329 498.7C95.3156 498.7 95.619 498.635 95.8429 498.505C96.0668 498.375 96.2256 498.176 96.3195 497.909H98.1179C97.9734 498.602 97.6231 499.148 97.067 499.545C96.5109 499.935 95.8031 500.13 94.9437 500.13ZM93.2537 496.024H96.417C96.3593 495.612 96.2004 495.306 95.9404 495.103C95.6804 494.894 95.3301 494.789 94.8895 494.789C94.449 494.789 94.0879 494.894 93.8062 495.103C93.5318 495.313 93.3476 495.62 93.2537 496.024ZM98.9053 501.907V500.867H99.4037C99.6059 500.867 99.7539 500.813 99.8478 500.704C99.9417 500.596 99.9887 500.455 99.9887 500.282V500H99.0895V498.072H101.061V500.357C101.061 500.841 100.935 501.221 100.682 501.495C100.429 501.769 100.039 501.907 99.512 501.907H98.9053ZM107.544 500.119C106.778 500.119 106.179 499.935 105.745 499.567C105.312 499.191 105.095 498.7 105.095 498.093C105.095 497.451 105.319 496.956 105.767 496.609C106.215 496.262 106.858 496.089 107.695 496.089H109.559V495.84C109.559 495.139 109.14 494.789 108.302 494.789C107.573 494.789 107.132 495.042 106.98 495.547H105.193C105.337 494.832 105.673 494.291 106.2 493.922C106.728 493.554 107.428 493.37 108.302 493.37C109.27 493.37 110.006 493.587 110.512 494.02C111.025 494.453 111.281 495.085 111.281 495.916V498.223H112.126V500H110.306V498.938H109.851C109.627 499.314 109.328 499.606 108.952 499.816C108.576 500.018 108.107 500.119 107.544 500.119ZM107.815 498.754C108.154 498.754 108.454 498.693 108.714 498.57C108.974 498.447 109.18 498.285 109.331 498.082C109.483 497.873 109.559 497.638 109.559 497.378V497.281H107.782C107.132 497.281 106.807 497.523 106.807 498.007C106.807 498.245 106.897 498.429 107.078 498.559C107.258 498.689 107.504 498.754 107.815 498.754ZM118.342 500L115.558 493.5H117.454L119.274 497.92H119.317L121.083 493.5H122.946L120.162 500H118.342ZM125.609 500.119C124.844 500.119 124.244 499.935 123.811 499.567C123.377 499.191 123.161 498.7 123.161 498.093C123.161 497.451 123.385 496.956 123.832 496.609C124.28 496.262 124.923 496.089 125.761 496.089H127.624V495.84C127.624 495.139 127.205 494.789 126.367 494.789C125.638 494.789 125.197 495.042 125.046 495.547H123.258C123.403 494.832 123.739 494.291 124.266 493.922C124.793 493.554 125.494 493.37 126.367 493.37C127.335 493.37 128.072 493.587 128.577 494.02C129.09 494.453 129.347 495.085 129.347 495.916V498.223H130.192V500H128.372V498.938H127.917C127.693 499.314 127.393 499.606 127.017 499.816C126.642 500.018 126.172 500.119 125.609 500.119ZM125.88 498.754C126.219 498.754 126.519 498.693 126.779 498.57C127.039 498.447 127.245 498.285 127.397 498.082C127.548 497.873 127.624 497.638 127.624 497.378V497.281H125.847C125.197 497.281 124.872 497.523 124.872 498.007C124.872 498.245 124.963 498.429 125.143 498.559C125.324 498.689 125.569 498.754 125.88 498.754ZM131.322 500V490.9H133.121V500H131.322ZM137.719 500.13C137.012 500.13 136.394 499.993 135.867 499.718C135.347 499.437 134.943 499.043 134.654 498.537C134.365 498.032 134.22 497.432 134.22 496.739C134.22 496.053 134.361 495.457 134.643 494.952C134.932 494.446 135.34 494.056 135.867 493.782C136.394 493.507 137.015 493.37 137.73 493.37C138.438 493.37 139.052 493.507 139.572 493.782C140.092 494.056 140.493 494.446 140.774 494.952C141.056 495.457 141.197 496.057 141.197 496.75C141.197 497.436 141.056 498.036 140.774 498.548C140.493 499.054 140.088 499.444 139.561 499.718C139.041 499.993 138.427 500.13 137.719 500.13ZM137.719 498.57C138.261 498.57 138.676 498.407 138.965 498.082C139.254 497.75 139.399 497.302 139.399 496.739C139.399 496.176 139.254 495.735 138.965 495.417C138.676 495.092 138.261 494.93 137.719 494.93C137.171 494.93 136.748 495.092 136.452 495.417C136.163 495.735 136.019 496.176 136.019 496.739C136.019 497.302 136.163 497.75 136.452 498.082C136.748 498.407 137.171 498.57 137.719 498.57ZM136.669 492.688V492.644L137.839 490.694H139.767V490.737L138.066 492.688H136.669ZM145.12 500.13C144.167 500.13 143.412 499.931 142.856 499.534C142.307 499.13 142.011 498.566 141.968 497.844H143.701C143.759 498.155 143.907 498.386 144.145 498.537C144.391 498.689 144.741 498.765 145.196 498.765C145.94 498.765 146.312 498.559 146.312 498.148C146.312 497.981 146.254 497.851 146.139 497.758C146.03 497.656 145.846 497.581 145.586 497.53L144.134 497.248C142.834 496.996 142.184 496.385 142.184 495.417C142.184 494.796 142.434 494.302 142.932 493.933C143.43 493.558 144.12 493.37 145.001 493.37C145.875 493.37 146.568 493.561 147.081 493.944C147.594 494.327 147.876 494.861 147.926 495.547H146.193C146.113 495.244 145.973 495.024 145.77 494.887C145.568 494.749 145.276 494.681 144.893 494.681C144.561 494.681 144.308 494.731 144.134 494.832C143.961 494.926 143.874 495.071 143.874 495.266C143.874 495.403 143.929 495.519 144.037 495.612C144.145 495.706 144.311 495.775 144.535 495.818L146.019 496.1C146.698 496.237 147.197 496.458 147.514 496.761C147.832 497.064 147.991 497.476 147.991 497.996C147.991 498.667 147.742 499.191 147.244 499.567C146.753 499.942 146.045 500.13 145.12 500.13ZM151.114 500.119C150.348 500.119 149.749 499.935 149.316 499.567C148.882 499.191 148.666 498.7 148.666 498.093C148.666 497.451 148.89 496.956 149.337 496.609C149.785 496.262 150.428 496.089 151.266 496.089H153.129V495.84C153.129 495.139 152.71 494.789 151.872 494.789C151.143 494.789 150.702 495.042 150.551 495.547H148.763C148.908 494.832 149.243 494.291 149.771 493.922C150.298 493.554 150.998 493.37 151.872 493.37C152.84 493.37 153.577 493.587 154.082 494.02C154.595 494.453 154.852 495.085 154.852 495.916V498.223H155.697V500H153.877V498.938H153.422C153.198 499.314 152.898 499.606 152.522 499.816C152.147 500.018 151.677 500.119 151.114 500.119ZM151.385 498.754C151.724 498.754 152.024 498.693 152.284 498.57C152.544 498.447 152.75 498.285 152.902 498.082C153.053 497.873 153.129 497.638 153.129 497.378V497.281H151.352C150.702 497.281 150.377 497.523 150.377 498.007C150.377 498.245 150.468 498.429 150.648 498.559C150.829 498.689 151.074 498.754 151.385 498.754ZM150.865 492.688V492.644L152.035 490.694H153.963V490.737L152.262 492.688H150.865ZM159.826 502.73C158.851 502.73 158.056 502.531 157.442 502.134C156.836 501.744 156.475 501.199 156.359 500.498H158.266C158.439 501.033 158.941 501.3 159.772 501.3C160.335 501.3 160.765 501.17 161.061 500.91C161.364 500.657 161.516 500.289 161.516 499.805V498.938H161.462C161.267 499.285 160.996 499.549 160.649 499.729C160.31 499.91 159.902 500 159.425 500C158.811 500 158.277 499.866 157.822 499.599C157.374 499.325 157.024 498.938 156.771 498.44C156.525 497.942 156.402 497.357 156.402 496.685C156.402 495.674 156.68 494.869 157.237 494.269C157.8 493.67 158.569 493.37 159.544 493.37C160.093 493.37 160.559 493.475 160.942 493.684C161.332 493.894 161.642 494.186 161.873 494.562H162.328V493.5H164.148V495.277H163.26V499.827C163.26 500.751 162.964 501.466 162.372 501.972C161.779 502.477 160.931 502.73 159.826 502.73ZM159.869 498.44C160.367 498.44 160.757 498.303 161.039 498.028C161.321 497.754 161.462 497.378 161.462 496.902V496.447C161.462 495.977 161.317 495.609 161.028 495.342C160.747 495.067 160.36 494.93 159.869 494.93C159.342 494.93 158.93 495.085 158.634 495.396C158.345 495.706 158.201 496.14 158.201 496.696C158.201 497.252 158.345 497.682 158.634 497.985C158.93 498.288 159.342 498.44 159.869 498.44ZM165.15 500V490.9H166.948V494.432H166.992C167.201 494.085 167.483 493.825 167.837 493.652C168.191 493.471 168.609 493.381 169.093 493.381C169.909 493.381 170.556 493.63 171.032 494.128C171.516 494.619 171.758 495.28 171.758 496.111V500H169.96V496.447C169.96 495.97 169.83 495.609 169.57 495.363C169.317 495.111 168.945 494.984 168.454 494.984C167.963 494.984 167.587 495.111 167.327 495.363C167.075 495.609 166.948 495.97 166.948 496.447V500H165.15ZM175.885 500.119C174.982 500.119 174.289 499.881 173.805 499.404C173.321 498.927 173.079 498.277 173.079 497.454V493.5H174.878V497.107C174.878 497.577 174.997 497.931 175.235 498.169C175.481 498.4 175.845 498.516 176.329 498.516C176.828 498.516 177.21 498.389 177.478 498.137C177.752 497.884 177.889 497.523 177.889 497.053V493.5H179.688V498.223H180.576V500H178.756V498.938H178.301C178.041 499.321 177.723 499.614 177.348 499.816C176.979 500.018 176.492 500.119 175.885 500.119ZM176.773 492.688V492.644L177.857 490.694H179.633V490.737L178.041 492.688H176.773ZM174.087 492.688V492.644L175.17 490.694H176.947V490.737L175.354 492.688H174.087ZM185.3 500V494.908H184.141V493.5H185.322V492.341C185.322 491.85 185.452 491.489 185.712 491.257C185.972 491.019 186.336 490.9 186.806 490.9H188.669V492.308H187.077V493.5H188.539V494.908H187.098V500H185.3ZM189.482 500V493.5H191.28V500H189.482ZM190.381 492.861C190.106 492.861 189.872 492.767 189.677 492.579C189.489 492.384 189.395 492.149 189.395 491.875C189.395 491.601 189.489 491.369 189.677 491.182C189.872 490.987 190.106 490.889 190.381 490.889C190.655 490.889 190.886 490.987 191.074 491.182C191.269 491.369 191.367 491.601 191.367 491.875C191.367 492.149 191.269 492.384 191.074 492.579C190.886 492.767 190.655 492.861 190.381 492.861ZM192.358 500V498.917L195.738 494.93H192.553V493.5H198.013V494.583L194.633 498.57H198.078V500H192.358ZM199.153 500V493.5H200.952V500H199.153ZM200.052 492.861C199.778 492.861 199.543 492.767 199.348 492.579C199.16 492.384 199.067 492.149 199.067 491.875C199.067 491.601 199.16 491.369 199.348 491.182C199.543 490.987 199.778 490.889 200.052 490.889C200.327 490.889 200.558 490.987 200.746 491.182C200.941 491.369 201.038 491.601 201.038 491.875C201.038 492.149 200.941 492.384 200.746 492.579C200.558 492.767 200.327 492.861 200.052 492.861ZM202.398 500V490.9H204.196V495.829H204.24L206.796 493.5H208.941L206.179 495.992L209.147 500H207.046L204.911 497.086L204.196 497.671V500H202.398ZM211.861 500.119C211.096 500.119 210.496 499.935 210.063 499.567C209.629 499.191 209.413 498.7 209.413 498.093C209.413 497.451 209.637 496.956 210.084 496.609C210.532 496.262 211.175 496.089 212.013 496.089H213.876V495.84C213.876 495.139 213.457 494.789 212.619 494.789C211.89 494.789 211.449 495.042 211.298 495.547H209.51C209.655 494.832 209.991 494.291 210.518 493.922C211.045 493.554 211.746 493.37 212.619 493.37C213.587 493.37 214.324 493.587 214.829 494.02C215.342 494.453 215.599 495.085 215.599 495.916V498.223H216.444V500H214.624V498.938H214.169C213.945 499.314 213.645 499.606 213.269 499.816C212.894 500.018 212.424 500.119 211.861 500.119ZM212.132 498.754C212.471 498.754 212.771 498.693 213.031 498.57C213.291 498.447 213.497 498.285 213.649 498.082C213.8 497.873 213.876 497.638 213.876 497.378V497.281H212.099C211.449 497.281 211.124 497.523 211.124 498.007C211.124 498.245 211.215 498.429 211.395 498.559C211.576 498.689 211.821 498.754 212.132 498.754ZM217.574 500V493.5H219.372V500H217.574ZM218.473 492.861C218.199 492.861 217.964 492.767 217.769 492.579C217.581 492.384 217.487 492.149 217.487 491.875C217.487 491.601 217.581 491.369 217.769 491.182C217.964 490.987 218.199 490.889 218.473 490.889C218.748 490.889 218.979 490.987 219.167 491.182C219.362 491.369 219.459 491.601 219.459 491.875C219.459 492.149 219.362 492.384 219.167 492.579C218.979 492.767 218.748 492.861 218.473 492.861ZM223.935 500V493.5H225.733V500H223.935ZM224.834 492.861C224.559 492.861 224.325 492.767 224.13 492.579C223.942 492.384 223.848 492.149 223.848 491.875C223.848 491.601 223.942 491.369 224.13 491.182C224.325 490.987 224.559 490.889 224.834 490.889C225.108 490.889 225.339 490.987 225.527 491.182C225.722 491.369 225.82 491.601 225.82 491.875C225.82 492.149 225.722 492.384 225.527 492.579C225.339 492.767 225.108 492.861 224.834 492.861ZM227.656 500V495.277H226.768V493.5H228.588V494.562H229.043C229.295 494.186 229.613 493.897 229.996 493.695C230.379 493.486 230.855 493.381 231.426 493.381C232.329 493.381 233.026 493.63 233.517 494.128C234.015 494.619 234.264 495.28 234.264 496.111V500H232.466V496.447C232.466 495.97 232.336 495.609 232.076 495.363C231.823 495.111 231.451 494.984 230.96 494.984C230.469 494.984 230.093 495.111 229.833 495.363C229.581 495.609 229.454 495.97 229.454 496.447V500H227.656ZM237.704 500C237.241 500 236.88 499.884 236.62 499.653C236.367 499.415 236.241 499.054 236.241 498.57V494.908H235.125V493.5H236.263V491.55H238.018V493.5H239.524V494.908H238.039V498.592H239.675V500H237.704ZM243.745 500.13C243.045 500.13 242.435 499.993 241.915 499.718C241.395 499.437 240.994 499.043 240.712 498.537C240.43 498.025 240.29 497.422 240.29 496.728C240.29 496.035 240.427 495.439 240.701 494.941C240.976 494.435 241.366 494.049 241.871 493.782C242.384 493.507 242.987 493.37 243.68 493.37C244.359 493.37 244.941 493.5 245.425 493.76C245.916 494.02 246.291 494.392 246.551 494.876C246.811 495.36 246.941 495.937 246.941 496.609V497.216H242.012C242.084 497.7 242.269 498.068 242.565 498.321C242.861 498.574 243.251 498.7 243.735 498.7C244.117 498.7 244.421 498.635 244.645 498.505C244.869 498.375 245.027 498.176 245.121 497.909H246.92C246.775 498.602 246.425 499.148 245.869 499.545C245.313 499.935 244.605 500.13 243.745 500.13ZM242.055 496.024H245.219C245.161 495.612 245.002 495.306 244.742 495.103C244.482 494.894 244.132 494.789 243.691 494.789C243.251 494.789 242.89 494.894 242.608 495.103C242.334 495.313 242.149 495.62 242.055 496.024ZM248.574 500V495.277H247.685V493.5H249.505V494.778H249.96C250.134 494.323 250.408 493.984 250.784 493.76C251.159 493.536 251.582 493.424 252.051 493.424H252.604V494.984H251.975C251.412 494.984 250.997 495.143 250.73 495.461C250.47 495.779 250.34 496.198 250.34 496.718V500H248.574ZM255.469 500.119C254.704 500.119 254.104 499.935 253.671 499.567C253.238 499.191 253.021 498.7 253.021 498.093C253.021 497.451 253.245 496.956 253.693 496.609C254.141 496.262 254.783 496.089 255.621 496.089H257.484V495.84C257.484 495.139 257.066 494.789 256.228 494.789C255.498 494.789 255.058 495.042 254.906 495.547H253.119C253.263 494.832 253.599 494.291 254.126 493.922C254.653 493.554 255.354 493.37 256.228 493.37C257.196 493.37 257.932 493.587 258.438 494.02C258.951 494.453 259.207 495.085 259.207 495.916V498.223H260.052V500H258.232V498.938H257.777C257.553 499.314 257.253 499.606 256.878 499.816C256.502 500.018 256.033 500.119 255.469 500.119ZM255.74 498.754C256.08 498.754 256.379 498.693 256.639 498.57C256.899 498.447 257.105 498.285 257.257 498.082C257.409 497.873 257.484 497.638 257.484 497.378V497.281H255.708C255.058 497.281 254.733 497.523 254.733 498.007C254.733 498.245 254.823 498.429 255.004 498.559C255.184 498.689 255.43 498.754 255.74 498.754ZM261.139 500V490.9H262.938V495.829H262.981L265.538 493.5H267.683L264.92 495.992L267.888 500H265.787L263.653 497.086L262.938 497.671V500H261.139ZM271.431 500.13C270.752 500.13 270.156 499.993 269.643 499.718C269.137 499.437 268.74 499.043 268.451 498.537C268.17 498.032 268.029 497.436 268.029 496.75C268.029 496.064 268.17 495.468 268.451 494.962C268.733 494.457 269.13 494.067 269.643 493.792C270.156 493.511 270.752 493.37 271.431 493.37C272.29 493.37 272.998 493.587 273.554 494.02C274.11 494.453 274.46 495.049 274.605 495.807H272.796C272.702 495.526 272.539 495.309 272.308 495.157C272.077 495.006 271.784 494.93 271.431 494.93C270.947 494.93 270.557 495.089 270.261 495.407C269.972 495.724 269.827 496.172 269.827 496.75C269.827 497.328 269.975 497.776 270.271 498.093C270.567 498.411 270.954 498.57 271.431 498.57C272.196 498.57 272.662 498.245 272.828 497.595H274.637C274.507 498.389 274.164 499.011 273.608 499.458C273.052 499.906 272.326 500.13 271.431 500.13ZM275.465 500V493.5H277.263V500H275.465ZM276.364 492.861C276.09 492.861 275.855 492.767 275.66 492.579C275.472 492.384 275.378 492.149 275.378 491.875C275.378 491.601 275.472 491.369 275.66 491.182C275.855 490.987 276.09 490.889 276.364 490.889C276.638 490.889 276.87 490.987 277.057 491.182C277.252 491.369 277.35 491.601 277.35 491.875C277.35 492.149 277.252 492.384 277.057 492.579C276.87 492.767 276.638 492.861 276.364 492.861ZM281.862 500.13C281.154 500.13 280.537 499.993 280.01 499.718C279.49 499.437 279.085 499.043 278.796 498.537C278.507 498.032 278.363 497.432 278.363 496.739C278.363 496.053 278.504 495.457 278.785 494.952C279.074 494.446 279.482 494.056 280.01 493.782C280.537 493.507 281.158 493.37 281.873 493.37C282.581 493.37 283.195 493.507 283.715 493.782C284.235 494.056 284.635 494.446 284.917 494.952C285.199 495.457 285.34 496.057 285.34 496.75C285.34 497.436 285.199 498.036 284.917 498.548C284.635 499.054 284.231 499.444 283.704 499.718C283.184 499.993 282.57 500.13 281.862 500.13ZM281.862 498.57C282.404 498.57 282.819 498.407 283.108 498.082C283.397 497.75 283.541 497.302 283.541 496.739C283.541 496.176 283.397 495.735 283.108 495.417C282.819 495.092 282.404 494.93 281.862 494.93C281.313 494.93 280.891 495.092 280.595 495.417C280.306 495.735 280.161 496.176 280.161 496.739C280.161 497.302 280.306 497.75 280.595 498.082C280.891 498.407 281.313 498.57 281.862 498.57ZM280.811 492.688V492.644L281.981 490.694H283.91V490.737L282.209 492.688H280.811ZM286.403 500V490.9H288.201V495.829H288.245L290.801 493.5H292.946L290.184 495.992L293.152 500H291.05L288.916 497.086L288.201 497.671V500H286.403ZM293.677 501.907V500.867H294.175C294.377 500.867 294.525 500.813 294.619 500.704C294.713 500.596 294.76 500.455 294.76 500.282V500H293.861V498.072H295.833V500.357C295.833 500.841 295.706 501.221 295.453 501.495C295.201 501.769 294.811 501.907 294.283 501.907H293.677ZM303.312 500.13C302.611 500.13 302.001 499.993 301.481 499.718C300.961 499.437 300.56 499.043 300.279 498.537C299.997 498.025 299.856 497.422 299.856 496.728C299.856 496.035 299.993 495.439 300.268 494.941C300.542 494.435 300.932 494.049 301.438 493.782C301.95 493.507 302.554 493.37 303.247 493.37C303.926 493.37 304.507 493.5 304.991 493.76C305.482 494.02 305.858 494.392 306.118 494.876C306.378 495.36 306.508 495.937 306.508 496.609V497.216H301.579C301.651 497.7 301.835 498.068 302.131 498.321C302.427 498.574 302.817 498.7 303.301 498.7C303.684 498.7 303.987 498.635 304.211 498.505C304.435 498.375 304.594 498.176 304.688 497.909H306.486C306.342 498.602 305.991 499.148 305.435 499.545C304.879 499.935 304.171 500.13 303.312 500.13ZM301.622 496.024H304.785C304.727 495.612 304.569 495.306 304.309 495.103C304.049 494.894 303.698 494.789 303.258 494.789C302.817 494.789 302.456 494.894 302.174 495.103C301.9 495.313 301.716 495.62 301.622 496.024ZM302.153 492.688V492.644L303.323 490.694H305.251V490.737L303.55 492.688H302.153ZM310.426 500.13C309.473 500.13 308.718 499.931 308.162 499.534C307.613 499.13 307.317 498.566 307.273 497.844H309.007C309.065 498.155 309.213 498.386 309.451 498.537C309.697 498.689 310.047 498.765 310.502 498.765C311.246 498.765 311.618 498.559 311.618 498.148C311.618 497.981 311.56 497.851 311.444 497.758C311.336 497.656 311.152 497.581 310.892 497.53L309.44 497.248C308.14 496.996 307.49 496.385 307.49 495.417C307.49 494.796 307.739 494.302 308.238 493.933C308.736 493.558 309.426 493.37 310.307 493.37C311.181 493.37 311.874 493.561 312.387 493.944C312.9 494.327 313.181 494.861 313.232 495.547H311.498C311.419 495.244 311.278 495.024 311.076 494.887C310.874 494.749 310.581 494.681 310.198 494.681C309.866 494.681 309.613 494.731 309.44 494.832C309.267 494.926 309.18 495.071 309.18 495.266C309.18 495.403 309.234 495.519 309.343 495.612C309.451 495.706 309.617 495.775 309.841 495.818L311.325 496.1C312.004 496.237 312.502 496.458 312.82 496.761C313.138 497.064 313.297 497.476 313.297 497.996C313.297 498.667 313.048 499.191 312.549 499.567C312.058 499.942 311.35 500.13 310.426 500.13ZM320.489 500.13C319.788 500.13 319.178 499.993 318.658 499.718C318.138 499.437 317.737 499.043 317.455 498.537C317.174 498.025 317.033 497.422 317.033 496.728C317.033 496.035 317.17 495.439 317.444 494.941C317.719 494.435 318.109 494.049 318.614 493.782C319.127 493.507 319.73 493.37 320.424 493.37C321.103 493.37 321.684 493.5 322.168 493.76C322.659 494.02 323.034 494.392 323.294 494.876C323.554 495.36 323.684 495.937 323.684 496.609V497.216H318.755C318.828 497.7 319.012 498.068 319.308 498.321C319.604 498.574 319.994 498.7 320.478 498.7C320.861 498.7 321.164 498.635 321.388 498.505C321.612 498.375 321.771 498.176 321.864 497.909H323.663C323.518 498.602 323.168 499.148 322.612 499.545C322.056 499.935 321.348 500.13 320.489 500.13ZM318.799 496.024H321.962C321.904 495.612 321.745 495.306 321.485 495.103C321.225 494.894 320.875 494.789 320.434 494.789C319.994 494.789 319.633 494.894 319.351 495.103C319.077 495.313 318.893 495.62 318.799 496.024ZM327.874 502.73C326.899 502.73 326.104 502.531 325.49 502.134C324.884 501.744 324.522 501.199 324.407 500.498H326.314C326.487 501.033 326.989 501.3 327.819 501.3C328.383 501.3 328.812 501.17 329.109 500.91C329.412 500.657 329.564 500.289 329.564 499.805V498.938H329.509C329.314 499.285 329.044 499.549 328.697 499.729C328.357 499.91 327.949 500 327.473 500C326.859 500 326.324 499.866 325.869 499.599C325.422 499.325 325.071 498.938 324.819 498.44C324.573 497.942 324.45 497.357 324.45 496.685C324.45 495.674 324.728 494.869 325.284 494.269C325.848 493.67 326.617 493.37 327.592 493.37C328.141 493.37 328.607 493.475 328.989 493.684C329.379 493.894 329.69 494.186 329.921 494.562H330.376V493.5H332.196V495.277H331.308V499.827C331.308 500.751 331.012 501.466 330.419 501.972C329.827 502.477 328.979 502.73 327.874 502.73ZM327.917 498.44C328.415 498.44 328.805 498.303 329.087 498.028C329.369 497.754 329.509 497.378 329.509 496.902V496.447C329.509 495.977 329.365 495.609 329.076 495.342C328.794 495.067 328.408 494.93 327.917 494.93C327.39 494.93 326.978 495.085 326.682 495.396C326.393 495.706 326.249 496.14 326.249 496.696C326.249 497.252 326.393 497.682 326.682 497.985C326.978 498.288 327.39 498.44 327.917 498.44ZM333.425 502.6V501.159H334.855L335.364 499.946L332.559 493.5H334.465L336.285 497.877H336.329L338.105 493.5H339.947L337.163 500L336.632 501.257C336.451 501.683 336.242 502.011 336.004 502.242C335.765 502.481 335.401 502.6 334.909 502.6H333.425ZM148.709 516C148.247 516 147.886 515.884 147.626 515.653C147.373 515.415 147.247 515.054 147.247 514.57V510.908H146.131V509.5H147.269V507.55H149.024V509.5H150.529V510.908H149.045V514.592H150.681V516H148.709ZM154.751 516.13C154.051 516.13 153.44 515.993 152.92 515.718C152.4 515.437 152 515.043 151.718 514.537C151.436 514.025 151.295 513.422 151.295 512.728C151.295 512.035 151.433 511.439 151.707 510.941C151.982 510.435 152.372 510.049 152.877 509.782C153.39 509.507 153.993 509.37 154.686 509.37C155.365 509.37 155.947 509.5 156.43 509.76C156.922 510.02 157.297 510.392 157.557 510.876C157.817 511.36 157.947 511.937 157.947 512.609V513.216H153.018C153.09 513.7 153.274 514.068 153.57 514.321C153.867 514.574 154.257 514.7 154.74 514.7C155.123 514.7 155.427 514.635 155.65 514.505C155.874 514.375 156.033 514.176 156.127 513.909H157.925C157.781 514.602 157.431 515.148 156.875 515.545C156.319 515.935 155.611 516.13 154.751 516.13ZM153.061 512.024H156.225C156.167 511.612 156.008 511.306 155.748 511.103C155.488 510.894 155.138 510.789 154.697 510.789C154.257 510.789 153.895 510.894 153.614 511.103C153.339 511.313 153.155 511.62 153.061 512.024ZM159.049 516V506.9H160.847V516H159.049ZM161.297 518.6V517.192H162.369V509.5H164.157V517.159C164.157 517.643 164.027 518.004 163.767 518.242C163.514 518.481 163.149 518.6 162.673 518.6H161.297ZM163.269 508.861C162.994 508.861 162.759 508.767 162.564 508.579C162.377 508.384 162.283 508.149 162.283 507.875C162.283 507.601 162.377 507.369 162.564 507.182C162.759 506.987 162.994 506.889 163.269 506.889C163.543 506.889 163.774 506.987 163.962 507.182C164.157 507.369 164.254 507.601 164.254 507.875C164.254 508.149 164.157 508.384 163.962 508.579C163.774 508.767 163.543 508.861 163.269 508.861ZM168.678 516.13C167.978 516.13 167.367 515.993 166.847 515.718C166.327 515.437 165.926 515.043 165.645 514.537C165.363 514.025 165.222 513.422 165.222 512.728C165.222 512.035 165.359 511.439 165.634 510.941C165.908 510.435 166.298 510.049 166.804 509.782C167.317 509.507 167.92 509.37 168.613 509.37C169.292 509.37 169.873 509.5 170.357 509.76C170.848 510.02 171.224 510.392 171.484 510.876C171.744 511.36 171.874 511.937 171.874 512.609V513.216H166.945C167.017 513.7 167.201 514.068 167.497 514.321C167.793 514.574 168.183 514.7 168.667 514.7C169.05 514.7 169.353 514.635 169.577 514.505C169.801 514.375 169.96 514.176 170.054 513.909H171.852C171.708 514.602 171.358 515.148 170.801 515.545C170.245 515.935 169.538 516.13 168.678 516.13ZM166.988 512.024H170.151C170.094 511.612 169.935 511.306 169.675 511.103C169.415 510.894 169.064 510.789 168.624 510.789C168.183 510.789 167.822 510.894 167.541 511.103C167.266 511.313 167.082 511.62 166.988 512.024ZM175.792 516.13C174.839 516.13 174.084 515.931 173.528 515.534C172.979 515.13 172.683 514.566 172.64 513.844H174.373C174.431 514.155 174.579 514.386 174.817 514.537C175.063 514.689 175.413 514.765 175.868 514.765C176.612 514.765 176.984 514.559 176.984 514.148C176.984 513.981 176.926 513.851 176.811 513.758C176.702 513.656 176.518 513.581 176.258 513.53L174.806 513.248C173.506 512.996 172.856 512.385 172.856 511.417C172.856 510.796 173.106 510.302 173.604 509.933C174.102 509.558 174.792 509.37 175.673 509.37C176.547 509.37 177.24 509.561 177.753 509.944C178.266 510.327 178.547 510.861 178.598 511.547H176.865C176.785 511.244 176.644 511.024 176.442 510.887C176.24 510.749 175.947 510.681 175.565 510.681C175.232 510.681 174.98 510.731 174.806 510.832C174.633 510.926 174.546 511.071 174.546 511.266C174.546 511.403 174.601 511.519 174.709 511.612C174.817 511.706 174.983 511.775 175.207 511.818L176.691 512.1C177.37 512.237 177.869 512.458 178.186 512.761C178.504 513.064 178.663 513.476 178.663 513.996C178.663 514.667 178.414 515.191 177.916 515.567C177.424 515.942 176.717 516.13 175.792 516.13ZM182.783 516.13C182.082 516.13 181.472 515.993 180.952 515.718C180.432 515.437 180.031 515.043 179.749 514.537C179.468 514.025 179.327 513.422 179.327 512.728C179.327 512.035 179.464 511.439 179.738 510.941C180.013 510.435 180.403 510.049 180.908 509.782C181.421 509.507 182.024 509.37 182.718 509.37C183.396 509.37 183.978 509.5 184.462 509.76C184.953 510.02 185.328 510.392 185.588 510.876C185.848 511.36 185.978 511.937 185.978 512.609V513.216H181.049C181.121 513.7 181.306 514.068 181.602 514.321C181.898 514.574 182.288 514.7 182.772 514.7C183.155 514.7 183.458 514.635 183.682 514.505C183.906 514.375 184.065 514.176 184.158 513.909H185.957C185.812 514.602 185.462 515.148 184.906 515.545C184.35 515.935 183.642 516.13 182.783 516.13ZM181.093 512.024H184.256C184.198 511.612 184.039 511.306 183.779 511.103C183.519 510.894 183.169 510.789 182.728 510.789C182.288 510.789 181.927 510.894 181.645 511.103C181.371 511.313 181.186 511.62 181.093 512.024ZM187.513 516V511.277H186.625V509.5H188.445V510.562H188.9C189.153 510.186 189.471 509.897 189.853 509.695C190.236 509.486 190.713 509.381 191.283 509.381C192.186 509.381 192.883 509.63 193.374 510.128C193.873 510.619 194.122 511.28 194.122 512.111V516H192.323V512.447C192.323 511.97 192.193 511.609 191.933 511.363C191.681 511.111 191.309 510.984 190.818 510.984C190.326 510.984 189.951 511.111 189.691 511.363C189.438 511.609 189.312 511.97 189.312 512.447V516H187.513ZM201.327 516.119C200.424 516.119 199.73 515.881 199.247 515.404C198.763 514.927 198.521 514.277 198.521 513.454V509.5H200.319V513.107C200.319 513.577 200.438 513.931 200.677 514.169C200.922 514.4 201.287 514.516 201.771 514.516C202.269 514.516 202.652 514.389 202.919 514.137C203.193 513.884 203.331 513.523 203.331 513.053V509.5H205.129V514.223H206.017V516H204.197V514.938H203.742C203.482 515.321 203.165 515.614 202.789 515.816C202.421 516.018 201.933 516.119 201.327 516.119ZM200.807 508.688V508.644L201.977 506.694H203.905V506.737L202.204 508.688H200.807ZM206.022 518.6V517.192H207.095V509.5H208.882V517.159C208.882 517.643 208.752 518.004 208.492 518.242C208.24 518.481 207.875 518.6 207.398 518.6H206.022ZM207.994 508.861C207.72 508.861 207.485 508.767 207.29 508.579C207.102 508.384 207.008 508.149 207.008 507.875C207.008 507.601 207.102 507.369 207.29 507.182C207.485 506.987 207.72 506.889 207.994 506.889C208.269 506.889 208.5 506.987 208.687 507.182C208.882 507.369 208.98 507.601 208.98 507.875C208.98 508.149 208.882 508.384 208.687 508.579C208.5 508.767 208.269 508.861 207.994 508.861ZM215.512 516L212.728 509.5H214.623L216.443 513.92H216.487L218.253 509.5H220.116L217.332 516H215.512ZM220.926 516V509.5H222.724V516H220.926ZM221.825 508.861C221.55 508.861 221.316 508.767 221.121 508.579C220.933 508.384 220.839 508.149 220.839 507.875C220.839 507.601 220.933 507.369 221.121 507.182C221.316 506.987 221.55 506.889 221.825 506.889C222.099 506.889 222.33 506.987 222.518 507.182C222.713 507.369 222.811 507.601 222.811 507.875C222.811 508.149 222.713 508.384 222.518 508.579C222.33 508.767 222.099 508.861 221.825 508.861ZM224.214 516V506.9H226.012V516H224.214ZM229.571 516.119C228.806 516.119 228.206 515.935 227.773 515.567C227.339 515.191 227.123 514.7 227.123 514.093C227.123 513.451 227.347 512.956 227.794 512.609C228.242 512.262 228.885 512.089 229.723 512.089H231.586V511.84C231.586 511.139 231.167 510.789 230.329 510.789C229.6 510.789 229.159 511.042 229.008 511.547H227.22C227.365 510.832 227.701 510.291 228.228 509.922C228.755 509.554 229.456 509.37 230.329 509.37C231.297 509.37 232.034 509.587 232.539 510.02C233.052 510.453 233.309 511.085 233.309 511.916V514.223H234.154V516H232.334V514.938H231.879C231.655 515.314 231.355 515.606 230.979 515.816C230.604 516.018 230.134 516.119 229.571 516.119ZM229.842 514.754C230.181 514.754 230.481 514.693 230.741 514.57C231.001 514.447 231.207 514.285 231.359 514.082C231.51 513.873 231.586 513.638 231.586 513.378V513.281H229.809C229.159 513.281 228.834 513.523 228.834 514.007C228.834 514.245 228.925 514.429 229.105 514.559C229.286 514.689 229.531 514.754 229.842 514.754ZM229.322 508.688V508.644L230.492 506.694H232.42V506.737L230.719 508.688H229.322ZM238.283 518.73C237.308 518.73 236.513 518.531 235.899 518.134C235.293 517.744 234.932 517.199 234.816 516.498H236.723C236.896 517.033 237.398 517.3 238.229 517.3C238.792 517.3 239.222 517.17 239.518 516.91C239.821 516.657 239.973 516.289 239.973 515.805V514.938H239.919C239.724 515.285 239.453 515.549 239.106 515.729C238.767 515.91 238.359 516 237.882 516C237.268 516 236.734 515.866 236.279 515.599C235.831 515.325 235.481 514.938 235.228 514.44C234.982 513.942 234.859 513.357 234.859 512.685C234.859 511.674 235.137 510.869 235.694 510.269C236.257 509.67 237.026 509.37 238.001 509.37C238.55 509.37 239.016 509.475 239.399 509.684C239.789 509.894 240.099 510.186 240.33 510.562H240.785V509.5H242.605V511.277H241.717V515.827C241.717 516.751 241.421 517.466 240.829 517.972C240.236 518.477 239.388 518.73 238.283 518.73ZM238.326 514.44C238.824 514.44 239.214 514.303 239.496 514.028C239.778 513.754 239.919 513.378 239.919 512.902V512.447C239.919 511.977 239.774 511.609 239.485 511.342C239.204 511.067 238.817 510.93 238.326 510.93C237.799 510.93 237.387 511.085 237.091 511.396C236.802 511.706 236.658 512.14 236.658 512.696C236.658 513.252 236.802 513.682 237.091 513.985C237.387 514.288 237.799 514.44 238.326 514.44ZM244.484 516.13C244.181 516.13 243.921 516.025 243.704 515.816C243.495 515.599 243.39 515.339 243.39 515.036C243.39 514.732 243.495 514.476 243.704 514.267C243.921 514.05 244.181 513.942 244.484 513.942C244.788 513.942 245.044 514.05 245.254 514.267C245.47 514.476 245.579 514.732 245.579 515.036C245.579 515.339 245.47 515.599 245.254 515.816C245.044 516.025 244.788 516.13 244.484 516.13Z" fill="#67FFF2"/>
</svg>
