<svg width="104" height="24" viewBox="0 0 104 24" fill="none" xmlns="http://www.w3.org/2000/svg">
<g clip-path="url(#clip0_86_19)">
<path d="M24 12C24 5.37188 18.6281 0 12 0C5.37188 0 0 5.37188 0 12C0 17.9902 4.38563 22.9547 10.1259 23.8552V15.4716H7.08141V12H10.1259V9.35672C10.1259 6.35156 11.9142 4.68844 14.6564 4.68844C15.9713 4.68844 17.3456 4.92516 17.3456 4.92516V7.87734H15.8334C14.3409 7.87734 13.8806 8.80453 13.8806 9.75141V12H17.2078L16.6753 15.4716H13.8806V23.8552C19.6144 22.9547 24 17.9902 24 12Z" fill="#43AFAF"/>
<path d="M16.6681 15.4716L17.2011 12H13.8739V9.75141C13.8739 8.80453 14.3408 7.87735 15.8267 7.87735H17.3389V4.92516C17.3389 4.92516 15.9646 4.68844 14.6497 4.68844C11.908 4.68844 10.1192 6.35203 10.1192 9.35672V12H7.07471V15.4716H10.1192V23.8552C10.731 23.9536 11.3553 24 11.9933 24C12.6313 24 13.2556 23.9475 13.8674 23.8552V15.4716H16.6681Z" fill="#0E0E0F"/>
</g>
<g clip-path="url(#clip1_86_19)">
<path d="M55.5768 6.38517H48.4237C47.2819 6.38517 46.353 7.31407 46.353 8.4558V15.6089C46.353 16.7506 47.2819 17.6798 48.4237 17.6798H55.5768C56.7185 17.6798 57.6477 16.7509 57.6477 15.6089V8.4558C57.6477 7.31407 56.7188 6.38517 55.5768 6.38517ZM52.0002 15.7506C49.9502 15.7506 48.2822 14.0827 48.2822 12.0324C48.2822 9.98231 49.9502 8.31436 52.0002 8.31436C54.0505 8.31436 55.7185 9.98231 55.7185 12.0324C55.7185 14.0824 54.0503 15.7506 52.0002 15.7506ZM55.838 9.08309C55.3527 9.08309 54.958 8.68843 54.958 8.20339C54.958 7.71836 55.3527 7.32369 55.838 7.32369C56.323 7.32369 56.7177 7.71836 56.7177 8.20339C56.7177 8.68843 56.323 9.08309 55.838 9.08309Z" fill="#43AFAF"/>
<path d="M52.0001 9.88551C50.8167 9.88551 49.853 10.8486 49.853 12.0321C49.853 13.2161 50.8167 14.1795 52.0001 14.1795C53.1841 14.1795 54.147 13.2161 54.147 12.0321C54.147 10.8489 53.1839 9.88551 52.0001 9.88551Z" fill="#43AFAF"/>
<path d="M52 0C45.3728 0 40 5.37285 40 12C40 18.6272 45.3728 24 52 24C58.6272 24 64 18.6272 64 12C64 5.37285 58.6272 0 52 0ZM59.2183 15.6089C59.2183 17.6172 57.5849 19.2507 55.5766 19.2507H48.4234C46.4154 19.2507 44.7817 17.6172 44.7817 15.6089V8.4558C44.7817 6.44774 46.4154 4.81401 48.4234 4.81401H55.5766C57.5849 4.81401 59.2183 6.44774 59.2183 8.4558V15.6089Z" fill="#43AFAF"/>
</g>
<path d="M92 24C98.6274 24 104 18.6274 104 12C104 5.37258 98.6274 0 92 0C85.3726 0 80 5.37258 80 12C80 18.6274 85.3726 24 92 24Z" fill="#43AFAF"/>
<path d="M92.4284 4.28571V10.8013V15C92.4284 16.1835 91.469 17.1429 90.2856 17.1429C89.1021 17.1429 88.1427 16.1835 88.1427 15C88.1427 13.8165 89.1021 12.8571 90.2856 12.8571C90.4295 12.8572 90.5731 12.8718 90.7141 12.9007V10.3092C90.5717 10.2948 90.4287 10.287 90.2856 10.2857C87.6819 10.2857 85.5713 12.3964 85.5713 15C85.5713 17.6036 87.6819 19.7143 90.2856 19.7143C92.8892 19.7143 94.9999 17.6036 94.9999 15V9.52399C96.0148 10.2167 97.1081 10.7143 98.4284 10.7143V8.54297V7.98214C97.7375 7.98256 97.1913 7.78754 96.6053 7.42132V7.42303C95.8243 6.93578 95.2466 6.16154 94.9999 5.25167L94.8284 4.28571H92.4284Z" fill="#0E0E0F"/>
<defs>
<clipPath id="clip0_86_19">
<rect width="24" height="24" fill="white"/>
</clipPath>
<clipPath id="clip1_86_19">
<rect width="24" height="24" fill="white" transform="translate(40)"/>
</clipPath>
</defs>
</svg>
